<?xml version="1.0" encoding="utf-8"?>
<!-- Generator: Adobe Illustrator 27.8.0, SVG Export Plug-In . SVG Version: 6.00 Build 0)  -->
<svg version="1.1" id="Layer_1" xmlns="http://www.w3.org/2000/svg" xmlns:xlink="http://www.w3.org/1999/xlink" x="0px" y="0px"
	 viewBox="0 0 598.4 130.1" style="enable-background:new 0 0 598.4 130.1;" xml:space="preserve">
<style type="text/css">
	.st0{fill:#009EDB;}
</style>
<path class="st0" d="M181.5,10.2v13.2c0,2.7,1.3,6.1,5.4,6.1s5.4-3.5,5.4-6.1V10.2h2.9v13.7c0.5,4.6-2.8,8.8-7.4,9.3
	c-4.6,0.5-8.8-2.8-9.3-7.4c-0.1-0.6-0.1-1.2,0-1.8V10.2H181.5z"/>
<path class="st0" d="M200.5,17.3h2.7v2.2h0.1c1-1.7,2.8-2.6,4.7-2.5c2.8,0,5.2,1.7,5.2,5.5v9.3h-2.7v-8.6c0-2.7-1.6-3.7-3.3-3.7
	s-4,1.5-4,4.8v7.4h-2.7V17.3z"/>
<path class="st0" d="M219.7,10.1c1.1,0,2,0.9,2,2s-0.9,2-2,2s-2-0.9-2-2S218.6,10.1,219.7,10.1z M218.3,17.3h2.7v14.5h-2.7V17.3z"/>
<path class="st0" d="M234.1,19.7h-3.9v6.5c0,1.6,0,3.3,2.1,3.3c0.7,0,1.4-0.1,2-0.4v2.5c-0.8,0.3-1.6,0.5-2.5,0.5
	c-4.2,0-4.3-2.6-4.3-4.9v-7.5h-3.2v-2.4h3.2v-4h2.7v4.1h3.9V19.7z"/>
<path class="st0" d="M239.8,25.5c0,2.5,2.4,4.2,4.9,4.2c1.6-0.1,3-0.9,3.9-2.2l2.1,1.6c-1.5,2-3.9,3.1-6.4,3c-4.6,0-7.4-3.3-7.4-7.6
	c-0.2-4,3-7.4,7-7.6c0.2,0,0.3,0,0.5,0c5.1,0,7.1,3.9,7.1,7.6v1L239.8,25.5z M248.4,23.3c-0.1-2.4-1.4-4.2-4.2-4.2
	c-2.4,0-4.3,1.8-4.5,4.2H248.4z"/>
<path class="st0" d="M270,31.8h-2.8v-2.1l0,0c-1.2,1.6-3,2.5-5,2.5c-4.5,0-7.4-3.3-7.4-7.6s2.9-7.6,7.4-7.6c2-0.1,3.8,0.8,5,2.4l0,0
	V8.7h2.8V31.8z M267.2,24.6c0-2.9-1.8-5-4.7-5s-4.7,2.1-4.7,5s1.8,5,4.7,5S267.2,27.5,267.2,24.6L267.2,24.6z"/>
<path class="st0" d="M290,10.2h3.8l11.9,17.7h0.1V10.2h2.9v21.6H305L293,14h-0.1v17.8H290V10.2z"/>
<path class="st0" d="M314.1,19.1c1.6-1.4,3.6-2.1,5.7-2.1c4.3,0,6,2.3,6,4.8v7.4c0,0.9,0,1.7,0.1,2.6h-2.4c-0.1-0.7-0.1-1.5-0.1-2.2
	h-0.1c-1,1.7-3,2.7-5,2.6c-2.7,0-5-1.5-5-4.3s3.6-5,7.9-5h2v-0.6c0-1.7-1.5-3.1-3.2-3c-0.1,0-0.1,0-0.2,0c-1.5,0-3,0.6-4.1,1.6
	L314.1,19.1z M321.8,24.8c-2.6,0-5.7,0.5-5.7,2.8s1.2,2.3,3.1,2.3c2.2,0.1,4-1.5,4.1-3.7c0-0.2,0-0.3,0-0.5v-0.9L321.8,24.8z"/>
<path class="st0" d="M338.6,19.7h-3.9v6.5c0,1.6,0,3.3,2.1,3.3c0.7,0,1.4-0.1,2-0.4v2.5c-0.8,0.3-1.6,0.5-2.5,0.5
	c-4.2,0-4.3-2.6-4.3-4.9v-7.5h-3.2v-2.4h3.2v-4h2.7v4.1h3.9L338.6,19.7z"/>
<path class="st0" d="M343.9,10.1c1.1,0,2,0.9,2,2s-0.9,2-2,2s-2-0.9-2-2S342.8,10.1,343.9,10.1z M342.5,17.3h2.7v14.5h-2.7V17.3z"/>
<path class="st0" d="M357.2,17c4.2,0.1,7.6,3.5,7.5,7.7s-3.5,7.6-7.7,7.5s-7.5-3.4-7.5-7.6s3.4-7.6,7.6-7.6H357.2z M357.2,29.6
	c2.9,0,4.8-2.1,4.8-5s-1.8-5-4.8-5s-4.7,2.1-4.7,5S354.3,29.6,357.2,29.6z"/>
<path class="st0" d="M369.1,17.3h2.8v2.2h0.1c0.9-1.7,2.8-2.7,4.7-2.6c2.8,0,5.2,1.7,5.2,5.5v9.3h-2.7v-8.5c0-2.7-1.6-3.7-3.3-3.7
	s-4,1.5-4,4.8v7.4h-2.8L369.1,17.3z"/>
<path class="st0" d="M394.5,20.9c-0.7-0.9-1.8-1.4-3-1.4c-1.3,0-2.4,0.6-2.4,1.6s2.5,2,3.7,2.2s4.2,1.5,4.2,4.2s-3,4.5-5.8,4.5
	c-2.2,0.2-4.3-0.8-5.6-2.6l2.1-1.7c0.9,1,2.1,1.7,3.5,1.7s2.9-0.6,2.9-1.8s-2.3-1.9-3.5-2.2s-4.4-1.3-4.4-4.1s2.8-4.3,5.5-4.3
	c1.9-0.1,3.8,0.8,4.9,2.4L394.5,20.9z"/>
<path class="st0" d="M223.7,67c-3.8-4.7-9.5-7.4-15.6-7.4c-14.5,0-24.1,11.6-24.1,26.3s9,25.2,24.1,25.2c6.7,0.2,13.1-3.1,16.9-8.7
	l7.4,5.6c-1.9,2.6-9.7,11.3-24.5,11.3c-20.6,0-33.2-17.2-33.2-33.4c0-20.1,13.8-34.5,33.7-34.5c8.5,0,17.5,3.2,22.7,10.1L223.7,67z"
	/>
<path class="st0" d="M243.3,53H285v8.2h-33v19.3h30.7v8.2H252v20.7h34.6v8.2h-43.3V53z"/>
<path class="st0" d="M299.4,53h22.8c16.5,0,20.7,10,20.7,18.1s-6.1,16-15.9,17.1l18.3,29.5h-11L318,89.2h-9.8v28.5h-8.8L299.4,53z
	 M308.2,81.5h11.5c6.9,0,13.9-1.6,13.9-10.4s-6.9-10.4-13.9-10.4h-11.5V81.5z"/>
<path class="st0" d="M356.7,53h40.6v8.2h-31.8v20.3h29.7v8.2h-29.7v28h-8.8L356.7,53L356.7,53z"/>
<rect x="418.7" y="10.3" class="st0" width="2.2" height="107.5"/>
<path class="st0" d="M87.8,67.7c-0.4-0.2-0.8-0.1-1.1,0.2l-0.9,0.7c0,0-0.3,0.3-0.1,0.5s0.7-0.3,0.7-0.3l0.9-0.5l0.5-0.3
	c0,0,0.6-0.2-0.1-0.5 M111,56c-0.1,1.5-0.2,3-0.5,4.5c0.2,0.5,1.2,1.2,1.3,1.7s-0.9,1.3-1.2,0.8l-0.5-0.4
	c-1.4,5.4-4.1,10.3-7.9,14.4l2.7,2.7c0.1-0.3,0.1-0.5,0.1-0.8c-0.1-0.9,0.2-1.2,0.4-1.2c0.8,0,1.5,0.4,1.8,1.2
	c0.1,0.4,0.2,0,0.4,0.7c-0.1,0.4,0,0.8,0.1,1.2l0.3,0.7c0,0.3,0,0.5-0.1,0.8c6.7-7.1,10.6-16.4,11-26.2L111,56z M101,88
	c1.6-1.1,3.1-2.2,4.5-3.5l-0.2-0.2c-0.2,0.1-0.5,0-0.7-0.1c-0.2-0.3-0.3-0.6-0.4-0.9l-4.1-4.1c-0.3,0.3-0.6,0.6-0.9,0.9v1
	c2.6,1.2,3.2,2.3,3.1,2.8s-1.8,2.1-1.8,2.5s0.7,0.9,0.6,1.3L101,88z M79.1,88.2v7c2.1-0.1,4.2-0.3,6.2-0.7c-0.6-0.5-1.2-0.9-1.9-1.1
	c-0.6-0.6-1-1.3-1.2-2.1c-0.4-1.1,0.8-1.2,0.5-2s-2.8-0.5-2.8-0.5S80.2,89.3,79.1,88.2z M76.1,87.6c-7.5-0.3-14.8-3.1-20.5-8
	l0.9,0.9c1.6,1.4,1.8,2.2,1.7,2.9S54.7,84,54.7,84h-0.1c-1.2,0.6-2.4,0.8-3.7,0.8c-0.3-0.1-0.7-0.3-0.9-0.5l-0.3,0.3
	c7.3,6.5,16.6,10.3,26.4,10.6V87.6z M44.3,58.9C44.2,58,44.1,57,44,56.1h-7.8c0.2,3.7,0.8,7.4,2,10.9h0.1c0.3-0.2,0-0.3,0.2-0.8
	s0.5,0,0.6-0.3S39,65.5,39,65.2s0.4-0.4,0.4-0.6s-0.2,0.2-0.3-0.5c0-0.5,0.1-1,0.3-1.5l0.6-1.3c0.3-0.7,1.7-1.1,2.1-1.6
	s0.4-0.9,1.2-1.1C43.7,58.6,44,58.7,44.3,58.9z M44,53.1c0.4-7.9,3.6-15.4,9-21.1l-5.4-5.5c-7,7.1-11,16.6-11.4,26.6H44z M55.1,29.9
	c5.8-5.2,13.2-8.2,21-8.5v-7.6c-9.8,0.3-19.1,4.1-26.4,10.7L55.1,29.9z M79.1,21.4c6.1,0.3,11.9,2.2,17,5.5l-0.5-1
	c-0.1-0.2,0.4-0.4,0.4-0.4s-1.1-1.7-0.8-2s1.2,0.5,1.7,1.3s1.1,1.5,1.5,1.6s1.2,0,1.4,0.8c0.3,0.6,0.5,1.2,0.7,1.9v0.4l2.3-2.2
	c-0.2-0.6-0.7-1.1-1.3-1.4l-1.6,0.5c0,0-0.6,0.3-0.8-0.1C99,25.9,99,25.4,99,25c0,0-0.6-0.4-0.6-0.7s0.3-1.4,0.1-1.8
	c-0.2-0.3-0.5-0.5-0.8-0.7c-0.1-0.6-0.3-1.3-0.5-1.9c-0.5-0.6-1-1.2-1.6-1.7v-0.3c-5.2-2.5-10.8-3.9-16.5-4.1V21.4z M102.3,32.2
	l0.6,0.7l1.7,2.1l0.8,1.1l0.8-0.5c0.5-0.3,0.8,0,0.9,0.6s-1,0.6-0.6,1.2s1.1-0.1,1.2,0c0.2,0.3,0.1,0.7-0.1,0.9
	c-0.2,0.3-0.5,0.4-0.5,0.6l0.3,0.6c0.4,0.2,1.2-0.2,1.2,0.5s0.6,1.4,0.7,2.1c0,0.4-0.1,0.8-0.3,1.1c0.3,0.8,0.6,1.7,0.8,2.5
	c0.2-0.2,0.4-0.2,0.7-0.2v0.1c0,0.4,0,0.7,0,1.1c0,0.4-0.1,0.9-0.2,1.3l0.2,1.2c0.1,0.5,0.2,1.1,0.3,1.6h-0.1c0.1,0.7,0.1,1.3,0.1,2
	h7.8c-0.2-5-1.3-10-3.3-14.6h-0.4c-0.3,0.3-0.7,0.4-1.1,0.5c-0.5,0-0.8-0.6-0.8-0.6s-2.2-2.9-2.5-3.1c-0.3-0.3-0.8-0.5-1.2-0.5
	c-0.9-0.1-0.7-0.5-0.7-0.5l-1.8-0.7l-0.6-1.3c0,0,0.1-0.5,0-0.6c-0.5-0.1-1.1-0.2-1.6-0.2l-1-0.7l-1.3,1.3
	C102.4,31.9,102.4,32.1,102.3,32.2L102.3,32.2z M132.7,54.5c0,30.1-24.7,54.5-55.3,54.5S22.3,84.6,22.3,54.5S47,0,77.5,0
	s55.3,24.4,55.3,54.5H132.7z M77.7,45.3L77.7,45.3l-2.1,0.2c0.2,0.1,0.3,0.2,0.2,0.4s0.3,1.7,0.3,1.7l-3.4,1.8c0,0-0.2,0.9-0.9,1.3
	c-0.5,0.2-0.8,0.6-1.1,1c-0.3,0.4-0.2,0.8-0.4,1.4s0.2,0.8,0.1,1.1c-0.1,0.6-0.3,1.1-0.5,1.7c-0.2,0.3-0.7-0.1-1-0.2
	s-0.5-1.6-0.7-1.8h-0.1c0,0.2,0,0.4,0,0.6c0,0.6,0.1,1.3,0.2,1.9c0.4-0.1,0.3-0.3,0.4-0.3s0.4,0.6,0.8,0.6s0.7-0.2,0.7-1
	c0-0.5,0.4-0.9,0.9-0.9c0.1,0,0.1,0,0.2,0c0.3,0,0,0.6,0.2,0.8s0.4,0,0.4,0.5s-1,1.1-1.1,1.9s-0.3,1-0.7,1s-0.4-0.9-0.6-0.4
	s0.6,1.3,0.6,1.3c0.4-0.3,0.7-0.7,0.9-1.2c0.2-0.4,0.6-0.3,1-0.6s0.5-1.5,0.4-1.8s0.5-0.2,2.5-0.3s1.9,0.5,1.8,1.1S77,57,77,57.6
	s-0.8,1.2-1,1.8s0.3,0.6,0,0.8c-0.2,0.1-0.3,0.3-0.4,0.5c-1.1,1.3-1.2,0.5-1.9,0.8c-0.5,0.2-1,0.3-1.5,0.2H72
	c1.6,1.2,3.6,1.8,5.6,1.8H79c0.2-1.1,0.6-2.8,1.4-3.2s1.9,0.3,2.3,0c0.3-0.2,0.6-0.5,0.7-0.9c0.2-0.5,0.3-1.1,0.2-1.7
	c-0.2-0.6-0.6-0.3-0.8-0.8s0.8-0.4,0.3-1s-0.6-1.5-0.8-1.7s-0.4,0-0.7-0.3s0.1-0.7,0.2-1.1s0.7-0.5,0.6-0.9s-0.5,0-0.6-0.5
	c0-0.4,0.1-0.8,0.3-1.1c0,0-1.1,0-1.2-0.4c-0.5-1.5-2.1-2.3-3.6-1.8c-0.2-0.6-1.1-1.2-1.1-1.2S76,46,76.3,45.6s1.2,0,1.3-0.1
	S77.7,45.4,77.7,45.3z M109.8,24.5c1.7,1.8,3.3,3.8,4.7,5.9c0.5,0.4,0.9,0.9,1.2,1.5v0.5l0.4,0.6l0.2,0.2c0.5,0.5,0.8,1.1,1.1,1.8
	c0.2,0.3,0.3,0.7,0.3,1.1c2.5,5.3,3.9,11.1,4.1,17h8c-0.4-12.8-5.5-24.9-14.4-34.1L109.8,24.5z M80.3,10.9c6.3,0.4,12.5,2.1,18.1,5
	l1.5-0.6h0.2l1.4,0.3c0.9,0.3,0.9,0,1.3,0.2s0.4,0.7,0.9,1.1s0.4,0,0.9,0.3c0.6,0.4,1.1,1,1.5,1.6c0.2,0.4,0.5-0.2,0.9,1.8l1.1,1.2
	l5-5C103.8,8.3,91.7,3.4,79.1,3v6.4h0.4c0.6,0.3,0.8,0.3,0.8,0.9C80.3,10.5,80.3,10.7,80.3,10.9z M47.5,22.3
	c7.9-7.1,18-11.2,28.6-11.5V3C63.4,3.3,51.3,8.2,42,16.8L47.5,22.3z M33.2,53.1c0.4-10.7,4.7-21,12.2-28.7l-5.6-5.6
	c-9,9.2-14.2,21.4-14.5,34.3H33.2z M45.4,84.6l-2.7-3.1c-0.8-0.3-0.7-0.5-1.5-1.2s-0.4-1.4-0.8-1.6s-0.2,0.3-0.3,0.4s-0.5,0.2-1,0
	c-0.4-0.2-0.8-0.5-1-0.9c-0.9-0.6-0.8-1.5-0.9-1.7s-0.7,0-1-0.1s-0.3-0.6-0.6-0.7c-0.2-0.1-0.5-0.2-0.8-0.1L33.7,74
	c0,0,0,0.8-0.7,0.8s-1.6-1.5-1.9-1.6s-0.5,0.3-0.9,0c-0.4-0.6-0.8-1.3-0.9-2c-0.1-0.4-0.3-0.7-0.5-1.1c-0.1-1,0-1.9,0.2-2.9
	c0.2-0.5,0.4,0,0.6-0.8s0.7-0.8,1.1-0.8c0.3-0.1,0.6,0.1,0.7,0.4c0.2,0.3,0.7,0,1-0.1s0-0.5,0-0.7s0.6-0.1,1-0.3s1-0.3,1.1,0l0,0
	C33.8,62,33.3,59,33.2,56h-8c0.4,12.8,5.6,25,14.6,34.2L45.4,84.6z M76.1,98.2c-10.6-0.3-20.7-4.4-28.5-11.5L42,92.3
	c9.3,8.5,21.5,13.4,34.1,13.7V98.2z M107.6,86.6c-2.5,2.3-5.2,4.2-8.1,5.9v0.2c-0.6,1.2-1.3,2.3-2.1,3.3c-0.3,0.5-0.5,0.2-1.1,0.7
	s-0.3,0.9-1,1.2l-1.2,0.5c-1.1,1.2-2.9,1.2-4.1,0.1c-0.1-0.1-0.1-0.1-0.2-0.2c-0.4-0.3-1.1-0.4-1.5-0.9L88,97.1
	c-2.9,0.7-5.8,1.1-8.7,1.2v7.7c12.6-0.4,24.7-5.3,34-13.8L107.6,86.6z M121.8,56c-0.4,10.7-4.7,20.8-12.1,28.5l5.6,5.6
	c8.9-9.1,14.1-21.3,14.5-34.1H121.8z M103.5,53h4.5c-0.1-1.2-0.2-2.5-0.4-3.7c-0.2,0.4-0.4,0.7-0.7,1c-0.5,0.5-1,0.2-1.5,0.5
	s-0.1,0.7-0.2,1.1s0.5,0.2,0.2,0.7s-0.7,0.2-1,0.2S103.9,52.6,103.5,53L103.5,53z M94.5,39.6l1.2,1.4c0.1-0.1,0.4-0.2,0.9-0.1l3,0.5
	c0.9,0.1,1.1,1.7,1.6,1.9s0.4,0.4,0.4,0.9s-0.4,0.3-0.3,0.7s0.4,0.7,0.7,0.3c0.5-0.6,1.2-0.8,1.9-0.7c1.5,0.3,1,1.1,1.6,1.3
	s0.4,0.3,0.6,0.6s-0.1,0.6-0.4,0.7s-0.3,0.4-0.3,0.6s-0.3,0.6-0.4,0.8s-0.3,0.9,0,0.9s0.6,0.3,0.8,0s1.4-1.5,1.4-2.1v-0.2
	c-0.3-1.2-0.7-2.4-1.2-3.6l-0.5-0.6c-0.6-0.4-2.5-1.4-2.8-1.9s0.1-0.6,0.4-1c0.4-0.4,0.5-0.9,0.4-1.4l-0.6-0.8l-1.8-2.5l-1.1-1.2
	L94.5,39.6z M79.1,32.2c4.9,0.3,9.6,2.3,13.3,5.5l5.6-5.6c-5.2-4.6-11.8-7.3-18.8-7.7L79.1,32.2z M62.7,37.5
	c3.8-3.2,8.5-5.1,13.4-5.4v-7.7c-7,0.3-13.6,3-18.9,7.6L62.7,37.5z M59,41.6l1.6-2l-5.5-5.5c-4.8,5.1-7.7,11.8-8,18.9h3.4
	c-0.2-0.3-0.3-0.6-0.3-1c0.1-0.4-0.2-1.8-0.1-2s0.4-0.5,0.6-0.7s0-0.6,0.1-0.8l0.7-0.9c0.3-0.3,0.2-1.1,0.9-1.4s0.9,0.1,1.4,0
	s0.5-0.7,0.5-0.7s-0.2-0.2,0.1-0.7s2.1-0.9,2.1-0.9s0-0.5,1.1-1.4C58,42.1,58.5,41.8,59,41.6z M54.9,53.1c0-0.3,0-0.7,0.1-1
	l-0.9-0.2c-0.8,0-1.6,0.5-1.5,1.2H54.9z M49.6,56.1H47c0.1,1.9,0.4,3.7,0.8,5.5c0.4-0.2,0.4-0.4,0.4-0.7s0.4-0.2,0.6-0.5
	s0.1-0.3,0-0.4c-0.3-0.2-0.5-0.5-0.6-0.9c-0.1-0.5,0.3-0.8,0.4-1.4s0-0.7,0.2-1.1S48.8,56.6,49.6,56.1L49.6,56.1z M60.6,69.5
	c-2.6-2.9-4.5-6.5-5.3-10.3h-0.2c-0.1-0.4-0.5-0.5-0.9-0.4L54,60.5c0,0.1-0.1,0.9-0.5,0.9c-0.2-0.1-0.4-0.3-0.5-0.5
	c0,0-0.6,0.1-0.7-0.1s-0.6-0.7-0.1-1.2s0.5,0.5,0.9,0s-0.5-2.7,0.2-2.7s1.1,1,1.2,1l0.5-0.2c-0.1-0.5-0.1-1-0.1-1.5h-3.4
	c-0.2,0.4-0.1,1.6-0.4,1.8s-1.6-0.2-1.7,0.6s0.4,0.6,0.4,1.4s-0.4,0.3-0.1,1.1s1.5,1,1.7,1.9c0.1,0.5,0.3,1,0.6,1.5
	c0.1,0.2-0.5,0.7-0.1,1.3c0.4,0.6,0.7,1.3,0.7,2c-0.1,1,0,2,0.3,3c0.4,1.6,0.4,0.6,1,1.6c0.2,0.5,0.3,1,0.3,1.6l0.9,1L60.6,69.5z
	 M72.4,76.4c-3.6-0.8-6.9-2.4-9.7-4.8L57.3,77c4.3,3.8,9.6,6.3,15.3,7.2L71,83.3c-0.3-0.6-0.7-1.2-1.2-1.7c-0.5-0.4-0.7-1.1-0.7-1.7
	c0.3-0.1,0.6-0.3,0.7-0.6c0.2-0.8,0.6-1.6,1.2-2.2L72.4,76.4z M90,73.2l-1,0.6h0.1c0.6,0.2,3,0.5,3.7,1.1c0.6,0.4,1.2,0.7,1.9,0.8
	l1.8-0.2l-1-1L94.2,74c-1-0.5-0.8,0.2-1.7-0.3C91.7,73.4,90.9,73.2,90,73.2z M107.3,61.3c0.4-1.7,0.7-3.5,0.8-5.3h-4.6l0.9,0.7
	c0.5,0.5,0.3,1,0.4,1.5s0.5,0.4,1.2,1.1s0.7,1.4,1,1.8L107.3,61.3z M95.5,68.2L95,68.8h0.1c0.4-0.3,0.7,0.2,1-0.3s0.3-0.9,0.6-1.2
	s1.1-0.5,1.6-0.4s0.5-0.2,0.8,0.7c0.2,0.5,0.3,1.1,0.2,1.7c0.2,0.2-0.4,0.9-0.5,2.3s-0.4,0.3-0.4,1.3V73l0.5,0.5l0.2-0.4
	c0.3-0.8,0.8-1.2,1.1-0.8c0.2,0.6,0.4,1.2,0.5,1.9c2.8-3.2,4.9-6.9,6.2-10.9h-0.2l-2.3,0.4h-1.8c0,0-0.5-0.5-0.7-0.2s-0.4,1.2-1.2,1
	s-0.4-1-0.6-1.1s0,0.3-0.3,0.8l-1.2,1.9c-0.1,0.3-1.7,0.3-1.9,0.7C96.4,67.4,96,67.9,95.5,68.2z M88.9,63.7l2.2,2.2
	c0-0.4-0.1-0.9-0.3-1.3l-1-0.5l-0.4-0.3l0.2-0.5h-0.3L88.9,63.7z M87.6,71.2l1-0.6c-0.3,0-0.6,0.1-0.8,0.4L87.6,71.2z M64.9,69.4
	c2.8,2.3,6.3,3.8,9.9,4.3c0,0.1,0,0.2,0,0.4l0.6,0.2c0.6,0.1,1.1-0.1,1.5-0.5c0.5-0.5,0.4-0.1,0.8-0.2l0.7-1.1
	c0.4-0.2,0.5-0.7,0.7-0.7v2.1c2.6-0.2,5.1-0.9,7.4-2.1c-0.4,0-1-0.7-1.1-0.7s0.2,0.8,0.2,1s-1.1,0.6-1.3,0.4s-1-0.7-1-0.6
	s-0.6,0.8-0.6,0.8s-1.4-0.5-1.9-1.1S80,71.3,80,71.3s-0.7,0.4-1,0.5s-0.4,0.6-0.7,0.7l-0.7,1.1c-0.4,0.1-0.3-0.3-0.8,0.2
	c-0.4,0.4-0.9,0.6-1.5,0.5l-0.6-0.2c0-0.1,0-0.3,0-0.4c-0.1-0.3-0.1-0.5-0.1-0.8c0-0.7,0.1-1.3,0.4-1.9c0.2-0.3,0.7-0.1,1.1-0.1v-2
	c0-0.1,0-0.2,0-0.3v-2c-2.2-0.2-4.3-1.1-6.1-2.4L64.9,69.4z M65.4,56.9v-0.6c-0.2,0.2-0.9,0.1-0.8,0.5S64.9,56.9,65.4,56.9z
	 M58.4,59.4c0.8,2.9,2.3,5.6,4.3,7.9l5.2-5.2l-0.6-0.8l0,0c-0.5,0.2-0.1,0.9-0.4,1.1c-0.3,0.2-0.5,0.5-0.6,0.8s-1,1.1-1.4,0.7
	s-0.1-2.4-0.7-2.4s-0.1,0.2,0,0.9s-0.4,0.4-0.6,0.3l-1.1-0.8c-0.6-0.5-0.2-0.9-0.2-0.9s-0.5-0.4-0.7-0.4s-0.1,0.4-0.5,0.2
	s-0.4-0.9-0.4-0.9c-0.5,0-1-0.1-1.5-0.3L58.4,59.4z M76.1,35.2C72,35.5,68,37,64.8,39.7l3,3c0.5,0.1,0.4,0.5,1,0.7s0.5-0.1,1-0.2
	s0.2,0.3,0.3,0.5s0.5-0.2,0.5-0.2s0.3,0.2,0.9,0s0.3-0.6,0.5-1s0.2-0.6,0.2-1s0.6-0.9,0.8-1.2s0.5-0.2,0.7,0.1s-0.2,0.5-0.1,0.8
	s1-0.1,2.4-0.3L76.1,35.2z M89.8,39.4c-3.1-2.4-6.8-3.9-10.7-4.2v5.7c0.7,0.1,1.4,0.3,2,0.6h0.2c0.4-0.7,1-1.1,1.8-1.2
	c0.3-0.2,0.2-0.4,0.5-0.8s0.9,0.1,1,0.4c0.1,0.9-0.1,1.8-0.6,2.6c-0.4,0.5-0.9,0.8-1.5,1c0.9,0.4,1.7,0.9,2.5,1.5l0.6-0.5v-0.3
	l0.6-0.4l2.5-2.5h-0.2C88.2,41,87.4,41,88.9,40L89.8,39.4z M93,42.4l-0.5-0.6l-0.6,0.5c0.3,0.4,0.8,0.9,0.7,0.7S92.8,42.9,93,42.4z
	 M102.3,13.7c0.4-0.3,0.5,0.1,0.9,0.2s0.4-0.3,1,0c0.5,0.2,0.8,0.6,0.8,1.1c0.1,0.3,0.2,0.7,0.4,1c0.1,0.3-0.6,0.7-1.1,0.4
	c-0.4-0.3-0.7-0.6-0.9-1l-1.2-0.9C102.1,14.2,102.1,13.9,102.3,13.7z M79.9,8.8c0,0,0.3-0.4,0.6-0.3h1l1.7-0.6l1.4-0.6L85.1,7
	c1.4-0.2,2.8,0.3,3.9,1.2l0.5,0.4l-0.2,0.5c-0.5,0.3-1.1,0.6-1.7,0.8c-0.4,0-0.8,0-1.2-0.1l-1.1-0.2l-2.2,0.6
	c-0.5,0.1-1.1,0-1.6-0.1L81,9.9l-1-0.8L79.9,8.8 M103,32.9l1.6,1.9v0.3L103,32.9"/>
<path class="st0" d="M106,112.1c0.3,0,4.3-0.8,10.5-1.5s8.8-0.4,13.3-1.5c3.4-0.8,6.5-2.6,8.8-5.3c0,0,0.3-0.1,0.2,0.2
	c-2.4,4.3-6,7.7-10.4,9.8c-5.2,2.4-11,3.2-16.7,2.3c-1.9-0.4-4.6-1.2-7.4-2c-2.6-0.8-5.4-1.2-8.1-1.4c0,0-0.2-0.3,0.4-0.4
	c2.3-0.4,4.5-1,6.7-1.9c3.9-1.8,7.2-5.7,9.8-8.1s6.9-6.8,9.4-7.9c0,0,0.2,0,0,0.3c-1.2,1.6-2.2,3.4-3,5.2c-0.9,2.6-2.3,5-4.1,7.1
	c-1.9,2.1-4.4,3.9-9.4,5C106,112,105.7,112.2,106,112.1 M150.5,84.9c-1,5.4-3.8,10.3-8,13.9c-5.4,4.9-9.9,6.7-12.5,7.3
	s-5.2,0.9-7.5,1.4c-2.2,0.4-4.3,1-6.4,1.7c0,0-0.2,0.1-0.1-0.1c1.4-1.1,2.6-2.4,3.6-3.9c2.5-3.3,4.7-11,4.7-11
	c0.7-2.2,1.6-4.5,2.6-6.6c1.3-2.7,5.5-8.6,6.3-9.2s0.4-0.2,0.3,0c-0.6,1.4-1.1,2.9-1.5,4.4c-0.9,4.3-1.1,8.7-1.7,10.4
	c-0.7,2.7-1.9,5.2-3.5,7.4c-1.3,1.6-2.7,3-4.3,4.3c-0.4,0.2,0.1,0.2,0.1,0.2c1.1-0.7,2.2-1.4,3.3-2.2c1.8-1.5,3.6-2.8,5.6-4
	c2.7-1.6,5.5-2.3,10.7-5.3c3.6-1.9,6.4-5,8.1-8.7C150.3,84.9,150.4,84.4,150.5,84.9L150.5,84.9z M138.2,62.7c-0.2,1.3-0.2,2.7-0.1,4
	c0.2,1.7,2.1,8.7,2,12.4c0,3.7-1.2,7.4-3.3,10.4h0.2c0,0,4-5.6,5.9-8s5.9-6.1,7.8-8.3c2.3-2.7,3.8-6,4.3-9.5h0.1
	c0.5,4.2,0,8.5-1.6,12.4s-4.1,7.3-7.3,10c-3.2,2.6-6.7,5-10.3,7.1c-1.7,1-3.4,2.1-4.9,3.4c0,0-0.2-0.1-0.2-0.2
	c1.1-2.1,2-4.3,2.7-6.6c0.6-3.2,1-6.4,1.2-9.6c0.2-3.1,1.1-14.2,3.2-17.7L138.2,62.7z M137.2,45.3c-0.1-0.2-0.4-0.5-0.4,0
	c0,3.9,0.5,7.9,1.5,11.7c1,4,3.6,12.5,3.9,13.7c0.5,2.7,0.5,5.6,0,8.3c0,0,0,0.5,0.3,0.2c1.3-2.1,2.7-4.1,4.2-6
	c1.4-1.6,4.8-5.8,5.7-8c2-4.3,3-9.1,2.8-13.9c-0.1-3.4-0.8-6.8-2.1-9.9c0,0-0.3-0.2-0.2,0.1c0.3,1.9,0.3,3.7,0.1,5.6
	c-0.4,2.6-1.2,5-2.4,7.3c-1.4,3.1-2.8,6.7-3.2,7.9c-0.5,2-0.9,4-1.2,6.1c-0.2,1.2-0.6,2.4-1.2,3.5l-0.2-0.2c0.7-1.7,1-3.4,1-5.2
	c0.1-3.3-0.8-6.5-2.4-9.3C141.7,54.4,137.4,48.1,137.2,45.3z M144.6,21.6c-0.3-0.3-0.2,0.1-0.2,0.1c1.5,2.5,2.2,5.3,2.1,8.2
	c-0.1,5.2-0.9,5.5-1,10.1c0,3.4,0.2,6.9,0.6,10.3h-0.3c-0.2-2.2-0.7-4.3-1.6-6.3c-1.8-3.9-9.1-9.8-9.1-9.8s-2.5-2.4-2.7-3.7
	s-0.4,0-0.4,0c0.6,2.9,1.5,5.7,2.7,8.4c2.1,4.6,6.8,9.2,8.2,12s2.2,3,3.3,8.2h0.2c0.2-2.4,0.8-4.8,1.7-7c1.6-4.8,2-4.3,2.9-8.8
	c0.6-3.2,0.6-6.6-0.1-9.8C150.6,32.6,149,26.3,144.6,21.6L144.6,21.6z M143.7,40.4c-0.7-1.4-1.6-2.7-2.7-3.9
	c-1.3-1.5-2.8-2.9-4.3-4.2c-2-1.6-4.2-3-5.6-4.3s-5.9-7.4-5.8-11.7c0.9,1.6,1.9,3.1,3.2,4.4c1.8,1.8,6.4,4.3,8.2,6
	c2.1,1.8,3.8,4.1,4.7,6.7h0.3c0,0-2-5.3-2.5-7.3c-0.5-2.8-1.2-5.6-2.1-8.4c-0.7-2.4-2.3-4.5-4.5-5.9l0.2-0.2c0,0,7.8,1.2,10.8,11.5
	c0.9,3-0.1,9.9,0.1,12.6s0.3,4.5,0.3,4.5L143.7,40.4z M117.5,4.7l5.1,1.8c3,1,5.7,2.7,7.9,4.9c3.6,4,4.6,7.5,5.4,10.5
	c0.2,0.9,0.6,1.8,1.1,2.6c0.1,0-0.1,0.2-0.1,0.2s-6.8-5.4-8.9-7.7s-4.4-6.4-6.2-8.1L117.5,4.7z M29.7,117.3c0,0,6.7,7.7,16.7,7.8
	c4.8,0,9.5-1.5,13.4-4.3c2.8-2,5.7-3.9,8.7-5.6c2.5-1.2,6.2-0.2,6.2-0.2c-2.9,1.1-5.6,2.6-8.1,4.4c-3.4,2.3-6.5,5-9.4,7.9l3.4,2.9
	c2.1-2.8,4.5-5.3,7.2-7.5c4.7-4,7.4-5.5,10.3-6.7c6.7,3.4,12.6,8.1,17.3,14l3.4-2.9c0,0-7.8-8-17.4-12.2c0,0,0.9-0.6,5-0.1
	c1.8,0.2,3.5,1.6,5.5,3c2.7,2,5.5,3.7,8.5,5.2c2.9,1.2,5.9,1.8,9,1.9c6.5-0.1,12.7-3,16.9-8c0,0,0-0.2-0.2-0.1
	c-3.6,1.8-5.6,3.2-11.6,3.1c-3.2-0.1-7.3-1-12.4-3.4s-8.6-3.9-14.7-4s-8.9,1-9.5,1.2s-2.8-1.3-8.2-1.3c-4.6,0-9.2,1.1-13.4,3.1
	c-3.1,1.5-8.9,4.8-15.7,4.7c-3.8,0-7.4-1.1-10.6-3.1C29.8,117.1,29.7,117.3,29.7,117.3z M50,112.4c-0.3,0-4.4-0.8-10.6-1.5
	s-9-0.3-13.5-1.4c-3.4-0.8-6.4-2.6-8.7-5.2c0,0-0.3-0.2-0.2,0.1c2.4,4.3,6,7.7,10.4,9.8c7.2,3.6,15.2,2.5,17.1,2.1s4.6-1.2,7.4-2
	c2.7-0.8,5.4-1.3,8.2-1.4c0,0,0.2-0.4-0.4-0.4c-2.3-0.2-4.6-0.8-6.7-1.9c-5.5-2.8-7.4-5.5-10-7.9s-7-6.7-9.5-7.8c0,0-0.2,0,0,0.3
	c1.2,1.6,2.2,3.4,3,5.2c1,2.6,2.3,4.9,4.1,7c1.9,2.1,4.6,3.9,9.6,5C50,112.2,50.3,112.4,50,112.4z M5.1,85.4
	c1.1,5.4,3.9,10.3,8.1,13.9c5.4,4.9,10.3,6.8,12.9,7.3l7.5,1.3c2.1,0.4,4.2,0.9,6.2,1.6c0,0,0.2,0.1,0.1-0.1c-1.3-1.2-2.5-2.5-3.5-4
	c-2.5-3.3-4.8-11-4.8-11c-0.7-1.9-1.4-3.8-2.3-5.7c-1.3-2.7-5.9-9.3-6.7-9.9s-0.4-0.2-0.3,0c0.6,1.4,1.2,2.8,1.5,4.3
	c0.5,2.6,1.3,8.7,1.9,10.4c0.7,2.7,1.9,5.3,3.6,7.6c1.2,1.6,2.7,3.1,4.3,4.3c0.4,0.2-0.1,0.2-0.1,0.2c-1.2-0.7-2.4-1.5-3.5-2.3
	c-1.4-1.3-3-2.4-4.6-3.4c-2.8-1.6-6.4-2.8-11.6-5.9s-7.3-6.4-8.4-8.7C5.4,85.4,5.1,84.9,5.1,85.4z M17,63.3c0.2,1.4,0.3,2.7,0.2,4.1
	c-0.2,1.7-1.9,8.6-1.8,12.3c0,3.7,1.2,7.4,3.4,10.4h-0.2c0,0-4-5.6-5.8-8s-6-6-7.8-8.3c-2.3-2.6-4-5.8-4.7-9.2H0.2
	c-0.5,4.1,0.1,8.3,1.7,12.2c1.6,3.9,4.1,7.3,7.4,10c3.2,2.6,6.7,5,10.3,7.1c1.7,1,3.4,2.1,4.9,3.4c0,0,0.2,0,0.2-0.1
	c-1.1-2.1-2-4.3-2.7-6.6c-0.6-3.2-1-6.4-1.2-9.6c-0.2-3.1-1.4-14.3-3.4-17.8L17,63.3z M17.9,45.6c0.1-0.2,0.4-0.5,0.4,0
	c-0.2,3.9-0.6,7.8-1.3,11.7c-0.9,4.1-3.6,12.5-3.9,13.7c-0.4,2.8-0.4,5.5,0,8.3c0,0,0,0.5-0.3,0.2s-2.8-4.3-4.2-5.8s-4.9-5.8-5.8-8
	c-2.1-4.8-3-10-2.7-15.2c0.5-6.8,2-8.5,2-8.5s0.3-0.2,0.2,0.1C2,43.9,2,45.7,2.2,47.5c0.4,2.8,1.4,5.5,2.8,8c1.2,2.3,2.2,4.8,3,7.3
	c0.6,1.9,1,3.8,1.3,5.8c0.2,1.2,0.6,2.4,1.2,3.5h0.1c-0.7-1.7-1-3.5-1-5.3c-0.1-3.3,0.7-6.5,2.4-9.3C13.5,54.6,17.8,48.4,17.9,45.6z
	 M10.1,22.2c0.2-0.3,0.4,0,0.4,0s-2.1,2.6-2,7.8s1,6.1,1.1,10.8c0,3.4-0.2,6.7-0.6,10.1h0.3c0.1-2.4,0.7-4.7,1.8-6.8
	c1.9-3.8,9.1-9.7,9.1-9.7s2.2-2.2,2.5-3.6s0.3,0.1,0.3,0.1c-0.4,2.8-1.2,5.5-2.4,8c-2.1,4.6-6.4,9.1-7.9,11.9s-2.6,3.7-3.6,8.9H8.8
	c-0.3-2.5-0.9-4.9-1.8-7.2c-1.6-4.8-2-4.1-2.9-8.5c-0.6-3.4-0.6-7,0.1-10.4C5.2,29.4,7.2,25.5,10.1,22.2z M11.3,41
	c0.7-1.5,1.7-2.8,2.8-4c1.4-1.5,2.8-2.9,4.4-4.2c1.9-1.6,4.2-3.1,5.6-4.4s5.5-7.4,5.4-11.7c-0.7,1.6-1.7,3.1-2.9,4.4
	c-1.8,1.8-6.4,4.5-8.3,6.2c-2.2,1.8-3.8,4.2-4.8,6.8h-0.1c0,0,1.9-5.4,2.4-7.4c0.5-2.8,1.2-5.6,2.1-8.4c0.7-2.4,2.3-4.5,4.4-5.8
	c0.1,0,0-0.2,0-0.2s-8,1.2-10.9,11.5c-0.9,3,0.3,10,0.1,12.7S11.3,40.9,11.3,41l0.2-0.1v-0.2 M36.9,5.2l-4.5,1.6c-3,1-5.8,2.7-8.1,5
	c-3.6,4-4.6,7.7-5.4,10.7S18,25.3,18,25.3s6.9-5.4,8.9-7.7S31.3,11,33,9.3L36.9,5.2"/>
<g>
	<path class="st0" d="M449.4,14.7l-1.9,1.5c-1-1.3-2.5-1.9-4.1-1.9c-3.8,0-6.3,3-6.3,6.9c0,3.6,2.5,6.6,6.3,6.6c2,0,3.4-0.8,4.4-2.3
		l1.9,1.5c-1.3,1.8-3.7,3-6.4,3c-5.5,0-8.7-4.6-8.7-8.8c0-5.1,3.5-9,8.9-9C445.8,12.1,448.1,13,449.4,14.7z"/>
	<path class="st0" d="M462.7,24v0.6h-9.1c0,2,1.8,3.3,3.8,3.3c1.3,0,2.3-0.7,3.1-1.7l1.6,1.2c-1.2,1.6-2.9,2.3-5,2.3
		c-3.4,0-5.9-2.4-5.9-6c0-3.4,2.4-6,5.9-6C460.5,17.8,462.7,20.1,462.7,24z M457.1,19.6c-2.3,0-3.5,1.9-3.5,3.3h6.8
		C460.4,20.7,459.2,19.6,457.1,19.6z"/>
	<path class="st0" d="M467.5,18.1v1.8l0,0c0.6-1.3,2.1-2,3.7-2c2.5,0,4.1,1.7,4.1,4.2v7.4h-2.2v-6.8c0-1.8-1-2.9-2.6-2.9
		c-2,0-3.2,1.4-3.2,3.7v6h-2.2V18.1H467.5z"/>
	<path class="st0" d="M477,20v-1.9h2.5v-3.2h2.2v3.2h3.1V20h-3.1v5.5c0,1.5,0.3,2.3,1.6,2.3c0.5,0,1.1-0.1,1.5-0.3v2
		c-0.4,0.2-1.3,0.4-2,0.4c-3.3,0-3.4-2.2-3.4-3.7V20H477z"/>
	<path class="st0" d="M487.5,18.1h2.2v1.8l0,0c0.6-1.2,2-2,3.4-2c0.4,0,0.7,0,1,0.1l-0.1,2.3c-0.4-0.1-0.7-0.2-1.1-0.2
		c-2.1,0-3.2,1.2-3.2,3.6v5.8h-2.2L487.5,18.1L487.5,18.1z"/>
	<path class="st0" d="M495.9,26.4c0-2.3,1.8-3.9,6.2-3.9h1.6V22c0-1.5-1.1-2.5-2.7-2.5c-1.2,0-2,0.3-3.2,1.3l-1.3-1.3
		c1.2-1.1,2.9-1.7,4.5-1.7c3.4,0,4.8,1.9,4.8,3.7v6.1c0,0.3,0,1.2,0.1,1.8H504c0-0.6-0.1-1.1-0.1-1.7l0,0c-1,1.5-2.3,2-4,2
		C497.5,29.8,495.9,28.5,495.9,26.4z M498,26.2c0,1.2,0.8,1.8,2.4,1.8c1.9,0,3.2-1.2,3.2-3.4V24h-1.2C499,24,498,25.1,498,26.2z"/>
	<path class="st0" d="M511.2,29.5H509V11.4h2.2V29.5z"/>
	<path class="st0" d="M435.6,41.3h11v2.2h-8.7v5.1h8.1v2.2h-8.1v5.4h9.1v2.2h-11.4V41.3z"/>
	<path class="st0" d="M449.7,58.3V46.9h2v1.8l0,0c0.5-1.1,2-2.1,3.6-2.1c1.7,0,2.8,0.7,3.6,2.1c0.7-1.3,2.1-2.1,3.6-2.1
		c2.9,0,4.3,1.7,4.3,4.9v6.7h-2.2v-6.5c0-2.2-0.8-3.2-2.4-3.2c-1.9,0-2.9,1.3-2.9,3.3v6.3h-2.2V52c0-2.7-0.8-3.5-2.4-3.5
		c-1.8,0-3,1.5-3,3.6v6h-2V58.3z"/>
	<path class="st0" d="M480.9,52.8v0.6h-9.1c0,2,1.8,3.3,3.8,3.3c1.3,0,2.3-0.7,3.1-1.7l1.6,1.2c-1.2,1.6-2.9,2.3-5,2.3
		c-3.4,0-5.9-2.4-5.9-6c0-3.4,2.4-6,5.9-6C478.8,46.6,480.9,48.9,480.9,52.8z M475.4,48.4c-2.3,0-3.5,1.9-3.5,3.3h6.8
		C478.6,49.5,477.4,48.4,475.4,48.4z"/>
	<path class="st0" d="M483.5,46.9h2.2v1.8l0,0c0.6-1.2,2-2,3.4-2c0.4,0,0.7,0,1,0.1l-0.1,2.3c-0.4-0.1-0.7-0.2-1.1-0.2
		c-2.1,0-3.2,1.2-3.2,3.6v5.8h-2.2L483.5,46.9L483.5,46.9z"/>
	<path class="st0" d="M497.2,46.6c1.6,0,3.1,0.7,4,1.9l0,0v-1.6h2.2v11.4c0,3-2.2,5.8-6.2,5.8c-2.2,0-4-0.6-5.6-2l1.5-1.8
		c1.1,1.2,2.4,1.8,4.1,1.8c2.7,0,4.1-1.5,4.1-3.9v-1.7h-0.1c-0.8,1.3-2.3,2-3.9,2c-3.2,0-5.8-2.4-5.8-5.8
		C491.4,49,493.9,46.6,497.2,46.6z M493.7,52.6c0,2.3,1.4,3.8,3.7,3.8c2.3,0,3.7-1.5,3.7-3.8c0-2.4-1.5-4-3.8-4
		C495.3,48.7,493.7,50.3,493.7,52.6z"/>
	<path class="st0" d="M517.4,52.8v0.6h-9.1c0,2,1.8,3.3,3.8,3.3c1.3,0,2.3-0.7,3.1-1.7l1.6,1.2c-1.2,1.6-2.9,2.3-5,2.3
		c-3.4,0-5.9-2.4-5.9-6c0-3.4,2.4-6,5.9-6C515.2,46.6,517.4,48.9,517.4,52.8z M511.8,48.4c-2.3,0-3.5,1.9-3.5,3.3h6.8
		C515,49.5,513.8,48.4,511.8,48.4z"/>
	<path class="st0" d="M522.2,46.9v1.8l0,0c0.6-1.3,2.1-2,3.7-2c2.5,0,4.1,1.7,4.1,4.2v7.4h-2.2v-6.8c0-1.8-1-2.9-2.6-2.9
		c-2,0-3.2,1.4-3.2,3.7v6h-2V46.9H522.2z"/>
	<path class="st0" d="M543.1,48.5l-1.6,1.5c-0.8-0.8-1.6-1.3-2.8-1.3c-2.2,0-3.6,1.7-3.6,4c0,2.2,1.5,3.9,3.7,3.9
		c1.2,0,2-0.4,2.8-1.3l1.5,1.5c-1.1,1.3-2.7,1.8-4.3,1.8c-3.5,0-6-2.4-6-5.9c0-3.6,2.5-6,6-6C540.4,46.7,542,47.2,543.1,48.5z"/>
	<path class="st0" d="M546,46.9l3.4,8.9l0,0l3.2-8.9h2.3l-5.4,13.8c-0.8,2.1-1.6,3.4-3.9,3.4c-0.7,0-1.3-0.1-1.9-0.3l0.3-1.9
		c0.4,0.1,0.9,0.2,1.3,0.2c1.3,0,1.8-0.7,2.2-1.9l0.7-1.8L543.5,47L546,46.9L546,46.9z"/>
	<path class="st0" d="M435.6,87.1v-17h6.1c3,0,5.3,1.4,5.3,4.8c0,1.9-1.3,4.1-4.2,4.5l0,0l4.8,7.8h-2.9l-4.3-7.5h-2.6v7.5h-2.2V87.1
		z M437.9,77.6h3.1c2.4,0,3.6-0.9,3.6-2.7c0-1.8-1.2-2.7-3.6-2.7h-3.1V77.6z"/>
	<path class="st0" d="M460.5,81.6v0.6h-9.1c0,2,1.8,3.3,3.8,3.3c1.3,0,2.3-0.7,3.1-1.7l1.6,1.2c-1.2,1.6-2.9,2.3-5,2.3
		c-3.4,0-5.9-2.4-5.9-6c0-3.4,2.4-6,5.9-6C458.3,75.4,460.5,77.7,460.5,81.6z M454.9,77.2c-2.3,0-3.5,1.9-3.5,3.3h6.8
		C458.1,78.3,456.9,77.2,454.9,77.2z"/>
	<path class="st0" d="M470.8,77.3l-1.7,1.3c-0.5-0.6-1.2-1.1-2.3-1.1s-1.9,0.5-1.9,1.3c0,0.9,0.9,1.4,2.2,1.6c2.7,0.5,4,1.4,4,3.5
		c0,2.5-2.3,3.6-4.6,3.6c-2.1,0-3.4-0.6-4.4-2l1.6-1.3c1,1,1.8,1.3,2.8,1.3c1.2,0,2.3-0.5,2.3-1.4s-0.8-1.3-2.2-1.6
		c-2.7-0.6-4.1-1.3-4.1-3.4c0-2.4,2.2-3.5,4.3-3.5C468.7,75.4,470.1,76.1,470.8,77.3z"/>
	<path class="st0" d="M473.7,75.7h2.2v1.6l0,0c0.9-1.2,2.4-1.9,4-1.9c3.3,0,5.8,2.4,5.8,6c0,3.5-2.4,6-5.8,6c-1.7,0-3.2-0.8-4-1.9
		l0,0v8.4h-2.2V75.7z M479.7,85.4c2.3,0,3.7-1.6,3.7-4s-1.5-4-3.8-4c-2.2,0-3.7,1.6-3.7,4C475.9,83.8,477.4,85.4,479.7,85.4z"/>
	<path class="st0" d="M500,81.4c0,3.3-2.7,6-6,6s-6-2.6-6-6c0-3.3,2.7-6,6-6C497.1,75.4,500,77.9,500,81.4z M493.9,85.4
		c2.3,0,3.7-1.6,3.7-4s-1.5-4-3.8-4c-2.2,0-3.7,1.6-3.7,4C490.2,83.8,491.7,85.4,493.9,85.4z"/>
	<path class="st0" d="M504.8,75.7v1.8l0,0c0.6-1.3,2.1-2,3.7-2c2.5,0,4.1,1.7,4.1,4.2v7.4h-2.2v-6.8c0-1.8-1-2.9-2.6-2.9
		c-2,0-3.2,1.4-3.2,3.7v6h-2.2V75.7H504.8z"/>
	<path class="st0" d="M523.7,77.3l-1.7,1.3c-0.5-0.6-1.2-1.1-2.3-1.1s-1.9,0.5-1.9,1.3c0,0.9,0.9,1.4,2.2,1.6c2.7,0.5,4,1.4,4,3.5
		c0,2.5-2.3,3.6-4.6,3.6c-2.1,0-3.4-0.6-4.4-2l1.6-1.3c1,1,1.8,1.3,2.8,1.3c1.2,0,2.3-0.5,2.3-1.4s-0.8-1.3-2.2-1.6
		c-2.7-0.6-4.1-1.3-4.1-3.4c0-2.4,2.2-3.5,4.3-3.5C521.6,75.4,523,76.1,523.7,77.3z"/>
	<path class="st0" d="M537.4,81.6v0.6h-9.1c0,2,1.8,3.3,3.8,3.3c1.3,0,2.3-0.7,3.1-1.7l1.6,1.2c-1.2,1.6-2.9,2.3-5,2.3
		c-3.4,0-5.9-2.4-5.9-6c0-3.4,2.4-6,5.9-6C535.2,75.4,537.4,77.7,537.4,81.6z M531.8,77.2c-2.3,0-3.5,1.9-3.5,3.3h6.8
		C535,78.3,533.8,77.2,531.8,77.2z"/>
	<path class="st0" d="M547.2,70.1h10.7v2.2h-8.4v5.3h7.8v2.2h-7.8v7.3h-2.3V70.1z"/>
	<path class="st0" d="M562.6,75.7v6.8c0,1.8,1,2.8,2.6,2.8c2,0,3.2-1.4,3.2-3.7v-6h2.2V87h-2.2v-1.8l0,0c-0.6,1.3-2.1,2-3.7,2
		c-2.5,0-4.1-1.7-4.1-4.2v-7.4L562.6,75.7L562.6,75.7z"/>
	<path class="st0" d="M576,75.7v1.8l0,0c0.6-1.3,2.1-2,3.7-2c2.5,0,4.1,1.7,4.1,4.2v7.4h-2.2v-6.8c0-1.8-1-2.9-2.6-2.9
		c-2,0-3.2,1.4-3.2,3.7v6h-2.2V75.7H576z"/>
	<path class="st0" d="M586.6,81.4c0-3.5,2.4-6,5.8-6c1.6,0,3.1,0.7,4,1.9l0,0V69h2.2v18.1h-2.2v-1.6l0,0c-0.8,1.2-2.4,1.9-4,1.9
		C589,87.4,586.6,84.9,586.6,81.4z M592.6,85.4c2.3,0,3.7-1.6,3.7-4s-1.5-4-3.8-4c-2.2,0-3.7,1.6-3.7,4S590.4,85.4,592.6,85.4z"/>
	<path class="st0" d="M450.1,107.4c0,4.9-3.8,8.5-9.2,8.5h-5.7v-17h6C447.4,98.9,450.1,103.2,450.1,107.4z M447.7,107.4
		c0-3.2-2-6.3-6.5-6.3h-3.6v12.7h3C443.8,113.7,447.7,112,447.7,107.4z"/>
	<path class="st0" d="M452.3,112.8c0-2.3,1.8-3.9,6.2-3.9h1.6v-0.4c0-1.5-1.1-2.5-2.7-2.5c-1.2,0-2,0.3-3.2,1.3l-1.3-1.3
		c1.2-1.1,2.9-1.7,4.5-1.7c3.4,0,4.8,1.9,4.8,3.7v6.1c0,0.3,0,1.2,0.1,1.8h-1.9c0-0.6-0.1-1.1-0.1-1.7l0,0c-1,1.5-2.3,2-4,2
		C454,116.2,452.3,114.9,452.3,112.8z M454.5,112.6c0,1.2,0.8,1.8,2.4,1.8c1.9,0,3.2-1.2,3.2-3.4v-0.6h-1.2
		C455.4,110.4,454.5,111.5,454.5,112.6z"/>
	<path class="st0" d="M463.7,106.4v-1.9h2.5v-3.2h2.2v3.2h3.1v1.9h-3.1v5.5c0,1.5,0.3,2.3,1.6,2.3c0.5,0,1.1-0.1,1.5-0.3v2
		c-0.4,0.2-1.3,0.4-2,0.4c-3.3,0-3.4-2.2-3.4-3.7v-6.1h-2.4V106.4z"/>
	<path class="st0" d="M473.7,112.8c0-2.3,1.8-3.9,6.2-3.9h1.6v-0.4c0-1.5-1.1-2.5-2.7-2.5c-1.2,0-2,0.3-3.2,1.3l-1.3-1.3
		c1.2-1.1,2.9-1.7,4.5-1.7c3.4,0,4.8,1.9,4.8,3.7v6.1c0,0.3,0,1.2,0.1,1.8h-1.9c0-0.6-0.1-1.1-0.1-1.7l0,0c-1,1.5-2.3,2-4,2
		C475.3,116.2,473.7,114.9,473.7,112.8z M475.8,112.6c0,1.2,0.8,1.8,2.4,1.8c1.9,0,3.2-1.2,3.2-3.4v-0.6h-1.2
		C476.8,110.4,475.8,111.5,475.8,112.6z"/>
	<path class="st0" d="M493.9,98.9h2.3v7.1h8.8v-7.1h2.3v17H505v-7.8h-8.8v7.8h-2.3L493.9,98.9L493.9,98.9z"/>
	<path class="st0" d="M513.3,104.5v6.8c0,1.8,1,2.8,2.6,2.8c2,0,3.2-1.4,3.2-3.7v-6h2.2v11.4H519V114l0,0c-0.6,1.3-2.1,2-3.7,2
		c-2.5,0-4.1-1.7-4.1-4.2v-7.4L513.3,104.5L513.3,104.5z"/>
	<path class="st0" d="M524.5,115.9V97.8h2.2v8.4l0,0c0.8-1.2,2.4-1.9,4-1.9c3.4,0,5.8,2.4,5.8,6c0,3.4-2.3,6-5.8,6
		c-1.6,0-3.1-0.7-4-1.9l0,0v1.6L524.5,115.9L524.5,115.9z M530.4,114.2c2.3,0,3.7-1.6,3.7-4s-1.5-4-3.8-4c-2.2,0-3.7,1.6-3.7,4
		C526.6,112.6,528.1,114.2,530.4,114.2z"/>
</g>
</svg>
