<?xml version="1.0" encoding="utf-8"?>
<!-- Generator: Adobe Illustrator 23.0.3, SVG Export Plug-In . SVG Version: 6.00 Build 0)  -->
<svg version="1.1" id="Layer_1" xmlns="http://www.w3.org/2000/svg" xmlns:xlink="http://www.w3.org/1999/xlink" x="0px" y="0px"
	 viewBox="0 0 41.9 37" style="enable-background:new 0 0 41.9 37;" xml:space="preserve">
<style type="text/css">
	.st0{fill:#555555;}
</style>
<title>UN Logo</title>
<g id="Page-1">
	<g id="Artboard">
		<g id="ocha-logo">
			<g id="Group">
				<path id="Shape" class="st0" d="M17.6,15.6c0-1.8,1.5-3.3,3.3-3.3c1.8,0,3.3,1.5,3.3,3.3s-1.5,3.3-3.3,3.3c0,0,0,0,0,0v-0.4
					c1.6,0,2.9-1.3,2.9-2.9c0-1.6-1.3-2.9-2.9-2.9c-1.6,0-2.9,1.3-2.9,2.9v0c0,1.6,1.3,2.9,2.9,2.9v0.4
					C19.1,18.9,17.6,17.4,17.6,15.6"/>
				<path id="Shape-2" class="st0" d="M15,15.6c0-3.3,2.7-6,6-6s6,2.7,6,6s-2.7,6-6,6v-0.4c3.1,0,5.6-2.5,5.6-5.6
					c0-3.1-2.5-5.6-5.6-5.6c-3.1,0-5.6,2.5-5.6,5.6c0,3.1,2.5,5.6,5.6,5.6c0,0,0,0,0,0v0.4C17.7,21.6,15,18.9,15,15.6"/>
				<path id="Shape-3" class="st0" d="M12.1,15.6c0-4.9,4-8.9,8.9-8.9s8.9,4,8.9,8.9s-4,8.9-8.9,8.9V24c4.6,0,8.4-3.8,8.5-8.4
					c0-4.7-3.8-8.5-8.5-8.5s-8.5,3.8-8.5,8.5c0,4.6,3.8,8.4,8.4,8.4c0,0,0.1,0,0.1,0v0.4c-4.8,0.1-8.8-3.8-8.9-8.6
					C12.1,15.7,12.1,15.7,12.1,15.6"/>
				<path id="Shape-4" class="st0" d="M9.3,15.6c0-6.4,5.2-11.7,11.6-11.7c6.4,0,11.7,5.2,11.7,11.6c0,6.4-5.2,11.7-11.6,11.7v-0.4
					c6.2,0,11.2-5,11.2-11.2S27.2,4.4,21,4.4S9.8,9.4,9.8,15.6c0,6.2,5,11.2,11.2,11.2c0,0,0,0,0,0v0.4C14.6,27.2,9.3,22.1,9.3,15.6
					C9.3,15.6,9.3,15.6,9.3,15.6"/>
				<path id="Shape-5" class="st0" d="M6.3,15.6C6.3,7.5,12.9,0.9,21,0.9s14.7,6.6,14.7,14.7S29.1,30.3,21,30.3l0,0v-0.4
					c7.9,0,14.3-6.4,14.3-14.3S28.9,1.3,21,1.3S6.7,7.7,6.7,15.6v0c0,7.9,6.4,14.3,14.3,14.3v0.4C12.9,30.3,6.3,23.8,6.3,15.6
					C6.3,15.7,6.3,15.6,6.3,15.6"/>
				<rect id="Rectangle-path" x="20.7" y="1.1" class="st0" width="0.4" height="11.4"/>
				<polygon id="Shape-6" class="st0" points="10.6,5.5 10.9,5.2 18.9,13.2 18.6,13.5 				"/>
				<rect id="Rectangle-path-2" x="6.5" y="15.4" class="st0" width="11.4" height="0.4"/>
				<polygon id="Shape-7" class="st0" points="10.6,25.7 18.6,17.7 18.9,18 10.9,26 				"/>
				<rect id="Rectangle-path-3" x="20.7" y="18.7" class="st0" width="0.4" height="11.4"/>
				
					<rect id="Rectangle-path-4" x="26.9" y="16.1" transform="matrix(0.7092 -0.705 0.705 0.7092 -7.455 25.4631)" class="st0" width="0.4" height="11.3"/>
				<rect id="Rectangle-path-5" x="24.1" y="15.4" class="st0" width="11.4" height="0.4"/>
				<polygon id="Shape-8" class="st0" points="23,13.2 31.1,5.2 31.3,5.5 23.3,13.5 				"/>
				<path id="Shape-9" class="st0" d="M18.7,16.5c0.1,0,0.1,0.1,0.1,0.2h0.1c0.2-0.2,0.3-0.4,0.4-0.7c0.1,0,0.1,0,0.1-0.1v0
					c0-0.1-0.2-0.2-0.2-0.3c-0.1,0.2-0.3,0-0.4,0.1v0.1h0.1V16l0,0c-0.1-0.1-0.2-0.1-0.3-0.1c0.1,0,0,0,0,0.1c-0.2,0-0.4,0-0.5,0.1
					c-0.1,0-0.1,0-0.2-0.1c-0.1,0.1-0.1,0.2-0.2,0.2l-0.1-0.1c0.1-0.1,0.2-0.1,0.2-0.2v-0.3c0.1-0.1,0.1-0.2,0.2-0.2s0.3,0.1,0.4,0
					l0.1,0.1v0.1c-0.1,0.1-0.2,0.1-0.2,0.2s0,0.1,0.1,0.1s0.1-0.1,0.2-0.1s0.1,0,0.1,0H19c0.1,0,0.1-0.3,0-0.4v-0.2
					c0-0.1,0.2-0.1,0.2,0v0.1c0,0,0,0.1,0.1,0l0,0v-0.2c0.1,0.1,0.1,0.1,0.2,0.1h0.2c0.1,0,0.1-0.1,0-0.2h-0.1
					c-0.1,0.1-0.1,0.1-0.2,0.1c-0.1,0-0.1-0.1-0.2-0.1S19,15.1,19,15s-0.1-0.1-0.1-0.2l0.1-0.1c0.1,0,0.2,0,0.3-0.1
					c0-0.1,0-0.1,0.1-0.2h0.1c0.1,0,0.2,0,0.3-0.1c0.1,0,0.2-0.1,0.3-0.2s0.1-0.1,0.2-0.1c0-0.1,0-0.1,0.1-0.1l0,0v-0.5
					c0-0.1,0-0.1,0.1-0.1l0,0h-0.1c0,0-0.1-0.1,0-0.1s0.2,0,0.2-0.1c0.1-0.1,0-0.2,0-0.3c0,0,0,0-0.1,0c-0.1-0.1-0.2,0-0.3,0
					c0,0.1,0,0.1-0.1,0.1l0,0c-0.1,0-0.2-0.1-0.1-0.2l0,0v-0.1h-0.1l-0.3,0.3V13l0,0c0,0.1,0,0.2-0.1,0.2h-0.1
					c0,0.1,0.2,0.1,0.1,0.2s-0.2,0.1-0.4,0.2c-0.3,0-0.6,0-0.9,0h-0.5c-0.1,0-0.1,0.1-0.2,0.2l0,0v-0.2c0-0.1-0.1,0-0.1-0.1
					c-0.2-0.4-0.7-0.3-1.1-0.3c-0.1,0-0.1,0-0.1,0.1v0c-0.1,0.1-0.2,0-0.3,0l-0.1,0.1c-0.1,0-0.2-0.1-0.3,0s-0.1,0.1-0.2,0.1v0.1
					h-0.1c-0.1,0-0.3,0-0.3,0.1l0,0c0,0.1,0,0.3-0.1,0.3c-0.1,0-0.3,0-0.4,0.1c-0.1,0-0.1,0.1-0.2,0.1c-0.2,0.4-0.4,0.8-0.4,1.2l0,0
					v0.1c-0.2,0.4-0.3,0.6-0.6,1.1c-0.1,0.2-0.2,0.6,0,0.7s0,0.2-0.2,0.2s-0.4,0-0.4-0.2s-0.2-0.1-0.3-0.1h-0.4
					c-0.2,0-0.2,0.3-0.3,0.4s-0.3,0.1-0.3,0.2V18c-0.1,0-0.1,0-0.1,0.1l0,0v0.1c0,0.2-0.1,0.3,0,0.5v0.1c0,0.2,0,0.3-0.1,0.5
					c-0.1,0.2-0.3,0.2-0.5,0.2h-1c-0.1,0-0.1-0.1-0.2-0.1c-0.1-0.1-0.1-0.1-0.1-0.2c-0.1-0.1-0.3,0-0.4,0.1c0.1,0,0,0.1,0,0.1
					s-0.2,0.1-0.3,0.2s-0.2-0.2-0.2-0.3s-0.1-0.1-0.2-0.1v0.1H8.1c-0.1,0.1,0.1,0.1,0.1,0.1v0.1H8.1c0,0.1,0,0.1-0.1,0.1h0l0,0
					c-0.1,0-0.1,0.1-0.1,0v-0.2H7.8c0,0.1,0,0.1-0.1,0.1v0.1h0.2C8,19.7,8,19.8,8,19.9l0,0C8,20,8,20.1,7.9,20s0-0.2,0-0.3H7.8
					c0.1,0.2-0.1,0.3,0.1,0.5c0.2,0.2-0.2,0.2-0.1,0.2c0.1,0.1,0.1,0.1,0.2,0.1v-0.1c0,0,0.1-0.1,0.1,0v0.1H8v0.4
					c0,0.1,0.2,0,0.2,0.1s-0.1,0.1,0,0.2c0.1,0,0.1,0,0.1,0.1l0,0v0.1c0.1,0,0.1,0,0.1,0.1l0,0c0.1,0,0.1,0,0.1-0.1s0.1-0.1,0.1-0.2
					s0-0.1-0.1,0V21c0-0.1-0.1-0.1-0.1-0.2s0.1,0,0.2-0.1c0.1,0,0.1,0,0.1,0.1l0,0v0.1c0.1,0,0.1,0,0.1,0.1l0,0
					c0.1,0,0.1,0.1,0.2,0.2h0.3v-0.1l0.1,0.1c0,0.1,0,0.2,0.1,0.3h0.1l0.1,0.1h0.1c0.1,0,0.1,0,0.1,0.1l0,0l0,0c0.1,0,0.2,0,0.2,0.1
					s0.1,0.2,0.2,0.4c0.1,0.1,0.1,0.1,0.2,0.2c0.1,0.1,0.2,0.1,0.3,0.1c0.1-0.1,0.1-0.1,0.2-0.1h0.1c0.1,0.2,0.1,0.4,0.3,0.4
					s0.1,0.1,0.2,0.2h0.2c0,0.1,0,0.1,0.1,0.1h0c0.1,0.1,0.2,0.1,0.2,0.2v0.1c0.1,0,0.2-0.1,0.2,0s0.2,0.1,0.2,0.2h0.1v-0.1
					c0-0.1,0.1,0,0.2-0.1s0.1-0.2,0.1-0.2s0.2,0.1,0.3,0.2h0.1c0.1,0.1,0.1,0.3,0.2,0.3s0.2,0.1,0.4,0.2s0.2,0.1,0.3,0.1h0.1
					c0.1,0,0.1,0,0.2-0.1s0.3-0.1,0.4-0.2l0.1-0.1c0.2-0.1,0.5,0.1,0.7,0s0.1,0,0.2-0.1c0.1-0.1,0.2-0.3,0.1-0.4s-0.2-0.5-0.3-0.7
					l-0.3-0.3h-0.1c-0.1,0-0.1-0.1-0.1-0.2c-0.1,0-0.1,0-0.1-0.1l0,0v-0.3c-0.1,0-0.2-0.1-0.4-0.1c-0.1,0-0.1,0-0.1-0.1l0,0v-0.1
					c0.1-0.1,0.2-0.1,0.3-0.1v-0.3c0-0.1,0-0.1-0.1-0.1h0c0-0.1,0.1-0.2,0-0.3s-0.2-0.2-0.2-0.3c-0.1,0-0.1,0-0.1-0.1l0,0v-0.5
					c0-0.1-0.1-0.1,0-0.2l0.1-0.1c0.1,0,0.1-0.1,0.1-0.2c-0.1-0.1-0.1-0.1-0.2,0c0,0,0,0,0,0v-0.3l-0.1-0.1v-0.2c0,0,0-0.1-0.1,0
					v-0.2c0-0.1-0.1-0.2-0.2-0.1l0,0c-0.1,0.1-0.1,0.1-0.2,0c0,0,0,0,0,0V18c0.1,0,0.1,0,0.1-0.1l0,0c0.1-0.1,0.1-0.1,0-0.2
					c0,0,0,0,0,0c-0.1-0.1-0.2-0.2-0.1-0.3c-0.1,0-0.3,0-0.3-0.2s0-0.3-0.1-0.4v-0.3c0-0.1,0-0.1,0.1-0.1h0c0.2,0,0.4,0,0.4-0.1
					S13.9,16,14,16s0.4,0,0.6-0.2c0.1,0,0.1-0.1,0-0.2c0-0.1,0-0.1-0.1-0.2c-0.1-0.1-0.2,0-0.3-0.2V15c0-0.1,0.1-0.1,0.2-0.2
					s0.3,0,0.5,0.1L15,15v0.1c0,0.2,0.1,0.4,0,0.6s-0.1,0.1-0.1,0.2H15c0,0.1,0.1,0.3,0,0.4s-0.1,0-0.3,0s-0.1,0-0.1,0.1l0.1,0.1
					c0.4,0.1,0.5,0.1,0.9,0.2c0.1,0,0.1,0.1,0.2,0.1h0.3c0,0.1,0,0.1,0.1,0.1l0,0c0.1,0.1,0.1,0.3,0.2,0.3c0.1-0.1,0.1-0.1,0.2,0
					c0,0,0,0,0,0c-0.1,0.1,0,0.2,0,0.3s0.2,0.1,0.3,0.2s0.2,0.1,0.2,0s-0.1-0.2,0-0.3c0.1,0.2,0,0.4,0.1,0.6l0,0
					c0.1,0.1,0.1,0.2,0.2,0.2s0.1-0.1,0.1-0.2v-0.1c0-0.1,0-0.1,0.1-0.2s0.1-0.2,0.1-0.3v-0.1c0-0.1,0.2-0.2,0.3-0.2V17
					c0.1,0,0-0.2,0.1-0.2s0.1-0.1,0.1-0.2s0.1-0.1,0-0.1C18.7,16.6,18.7,16.5,18.7,16.5"/>
				<path id="Shape-10" class="st0" d="M14.5,16.3h-0.1v0.1l0.1,0.1v0.3c0,0.1,0.1,0.2,0.2,0.1s0.2-0.3,0.1-0.4S14.7,16.4,14.5,16.3
					"/>
				<path id="Shape-11" class="st0" d="M14.3,17.2L14.3,17.2c0.1,0.2,0.2,0.1,0.3,0.1v-0.1C14.5,17.1,14.5,17.1,14.3,17.2
					c0.1-0.1,0-0.1,0-0.1V17.2"/>
				<path id="Shape-12" class="st0" d="M14.6,17.6c0-0.2-0.1-0.2-0.2-0.1s0,0.3,0.1,0.4c0,0.1,0,0.1,0.1,0.1h0c0,0.1,0.1,0,0.2,0
					s0-0.1,0.1-0.1C14.8,17.8,14.7,17.6,14.6,17.6"/>
				<path id="Shape-13" class="st0" d="M14.3,16.8C14.3,16.7,14.2,16.7,14.3,16.8c-0.1,0-0.1,0-0.1,0.1s0,0.2,0.1,0.2
					c0.1,0,0.1,0,0.1-0.1l0,0C14.3,16.9,14.3,16.9,14.3,16.8"/>
				<path id="Shape-14" class="st0" d="M14.7,17.4l0.1-0.1h0.1v-0.1c-0.1,0-0.1,0.1-0.2,0.1S14.7,17.4,14.7,17.4"/>
				<path id="Shape-15" class="st0" d="M14.6,18.3c0,0.1,0,0.1,0.1,0.1h0.1v-0.1H14.6"/>
				<path id="Shape-16" class="st0" d="M14.8,19c0-0.1,0.1-0.1,0-0.2h-0.1C14.7,18.9,14.7,18.9,14.8,19"/>
				<path id="Shape-17" class="st0" d="M8.5,21.5v0.1h0.2C8.6,21.6,8.6,21.4,8.5,21.5"/>
				<path id="Shape-18" class="st0" d="M9.1,22.2c-0.1,0.1,0.1,0.2,0.2,0.2v-0.2C9.2,22.1,9.2,22.1,9.1,22.2
					C9.1,22.2,9.1,22.2,9.1,22.2"/>
				<path id="Shape-19" class="st0" d="M9.4,22.6c0,0.2,0.1,0.3,0.2,0.3C9.7,22.7,9.6,22.6,9.4,22.6"/>
				<path id="Shape-20" class="st0" d="M19.5,17.4c0.2-0.1,0.4-0.1,0.6-0.1c0.4,0,0.4-0.6,0.6-0.9c0-0.1,0-0.3-0.1-0.4
					c-0.1-0.2-0.6,0-0.7-0.2s0.3,0.1,0.3-0.1s0-0.1-0.1-0.2h-0.2c-0.2,0.2-0.3,0.5-0.4,0.8c-0.4,0.4-0.7,0.8-0.9,1.2
					c0,0.1,0,0.1,0.1,0.2C19,17.8,19.3,17.5,19.5,17.4"/>
				<path id="Shape-21" class="st0" d="M21.3,16.4c-0.1,0-0.1,0-0.2,0.1v0.2h0.1c0-0.1,0-0.1-0.1-0.1C21.3,16.5,21.3,16.4,21.3,16.4
					"/>
				<path id="Shape-22" class="st0" d="M20,17.9c0.1,0.2,0.5,0.1,0.5,0s-0.3-0.2-0.4-0.2S20.2,17.8,20,17.9"/>
				<path id="Shape-23" class="st0" d="M20.5,19.2c0.1-0.1,0.1-0.2,0.1-0.3l-0.3,0.3H20.5"/>
				<path id="Shape-24" class="st0" d="M22.3,16.5v-0.1h-0.2c-0.1,0-0.1-0.1-0.1-0.2s-0.1-0.2-0.1-0.3s-0.1,0.2-0.1,0.2
					C22,16.3,22.1,16.6,22.3,16.5"/>
				<path id="Shape-25" class="st0" d="M19.9,15.3C19.8,15.2,19.8,15.3,19.9,15.3C19.8,15.4,19.9,15.4,19.9,15.3L19.9,15.3"/>
				<path id="Shape-26" class="st0" d="M8.1,19.1C8.1,19,8.1,19,8,19h0H7.9v0.1C8,19.2,8,19.2,8.1,19.1C8.1,19.1,8.1,19.1,8.1,19.1"
					/>
				<path id="Shape-27" class="st0" d="M8.8,19.1c0.1,0,0.2-0.1,0.1-0.2l0,0c-0.1-0.1-0.3,0-0.2,0.1C8.6,19.1,8.7,19.2,8.8,19.1"/>
				<path id="Shape-28" class="st0" d="M20.2,12.1c0-0.1,0.1-0.1,0.1-0.2h-0.1C20.1,11.9,20.1,12,20.2,12.1L20.2,12.1"/>
				<path id="Shape-29" class="st0" d="M20.5,12c0,0,0.1-0.1,0-0.1h-0.1C20.4,12,20.4,12,20.5,12L20.5,12"/>
				<path id="Shape-30" class="st0" d="M19.4,14.6c0,0.1,0.2,0.3,0.3,0.2c0.1-0.1,0.1-0.1,0-0.2c0,0,0,0,0,0
					C19.6,14.5,19.5,14.5,19.4,14.6C19.4,14.6,19.4,14.6,19.4,14.6"/>
				<path id="Shape-31" class="st0" d="M19.7,15.4v-0.1h-0.3c0,0.1,0,0.1,0.1,0.1l0,0C19.5,15.3,19.6,15.4,19.7,15.4"/>
				<path id="Shape-32" class="st0" d="M19.4,15.6c-0.1,0,0,0.1,0,0.2s0.1,0,0.2-0.1s0.1-0.2,0-0.2S19.4,15.5,19.4,15.6"/>
				<path id="Shape-33" class="st0" d="M19.2,15.3c0,0.1-0.1,0.2,0,0.3s0.1,0,0.1,0s0-0.2,0.1-0.2h-0.1v-0.1H19.2"/>
				<path id="Shape-34" class="st0" d="M26.8,22.4C26.9,22.4,26.8,22.3,26.8,22.4L26.8,22.4"/>
				<path id="Shape-35" class="st0" d="M21,18.5L21,18.5l-0.1-0.1c0-0.1-0.1,0.1-0.2,0l0,0c0.1,0.1,0,0.1-0.1,0.2
					c0,0.1,0,0.1,0.1,0.1l0,0c0,0.1-0.1,0.1,0,0.2L20.6,19c0,0-0.1,0.1,0,0.1s0.2-0.1,0.3-0.1H21c0.1,0,0.1-0.1,0.2-0.2H21
					C21,18.8,20.9,18.8,21,18.5L21,18.5"/>
				<path id="Shape-36" class="st0" d="M21.6,20.4C21.6,20.5,21.7,20.5,21.6,20.4c0.1,0,0.1-0.1,0.1-0.2h-0.1V20.4"/>
				<path id="Shape-37" class="st0" d="M21.7,20.2c0.1,0,0-0.1,0-0.1h-0.1C21.6,20.2,21.6,20.2,21.7,20.2L21.7,20.2"/>
				<path id="Shape-38" class="st0" d="M22.3,20.5L22.3,20.5c-0.1,0-0.1-0.1-0.2,0H22v0.1C22.2,20.5,22.2,20.5,22.3,20.5"/>
				<path id="Shape-39" class="st0" d="M23.3,20.4v-0.1c-0.1,0-0.2,0.1-0.3,0v0.1h-0.1C23.1,20.5,23.2,20.4,23.3,20.4"/>
				<path id="Shape-40" class="st0" d="M23.7,20c0,0.2,0.2,0.1,0.2,0S23.9,19.9,23.7,20l0.1-0.1C23.8,20,23.8,20,23.7,20L23.7,20"/>
				<path id="Shape-41" class="st0" d="M28.5,16.8c0,0.1,0.1,0.1,0.2,0.1c0.1,0,0.2,0,0.3-0.1c0-0.1-0.1-0.3-0.2-0.3c0,0,0,0-0.1,0
					C28.5,16.6,28.5,16.7,28.5,16.8"/>
				<path id="Shape-42" class="st0" d="M28.5,21.9h-0.1c-0.1,0.5-0.6,1.2,0,1.5c0.2,0.2,0.5-0.1,0.6-0.3S29,22.1,28.5,21.9"/>
				<path id="Shape-43" class="st0" d="M27,19.7c-0.1,0-0.1,0.2,0,0.2c0.1,0,0.1,0,0.1-0.1l0,0v-0.1H27"/>
				<path id="Shape-44" class="st0" d="M27.4,24.8V25C27.4,25,27.6,24.9,27.4,24.8L27.4,24.8"/>
				<path id="Shape-45" class="st0" d="M29.7,13.1h-0.1v0.2c-0.2,0.4-0.7,0.9-0.4,1.4l0,0c0.1-0.1,0.2-0.2,0.3-0.4
					c0.2-0.3,0.3-0.7,0.4-1C29.9,13.3,29.8,13.1,29.7,13.1"/>
				<path id="Shape-46" class="st0" d="M28.8,14.9c0,0.1,0,0.1,0.1,0.1s0.1-0.1,0-0.1S28.9,14.8,28.8,14.9"/>
				<path id="Shape-47" class="st0" d="M23.7,11.8c-0.1-0.2-0.2,0-0.3,0l-0.1-0.1h-0.1c-0.1,0,0,0.2,0.1,0.2s0.1-0.1,0.1,0
					s0,0.3,0.2,0.2s0.2-0.1,0.3-0.1s0.1-0.1,0.1-0.2s0.2-0.1,0.3,0c0,0.1,0,0.1,0.1,0.1l0,0c0,0.1,0.1,0.1,0.2,0.1
					c0.1,0,0.2,0,0.3-0.1c0.1-0.1,0.1-0.2,0-0.3c0,0,0,0,0,0h-0.2c-0.1,0-0.1-0.1-0.2-0.1C24.1,11.4,23.9,11.7,23.7,11.8"/>
				<path id="Shape-48" class="st0" d="M22.7,12H23c0-0.2-0.2-0.1-0.3-0.1C22.8,11.8,22.8,11.9,22.7,12L22.7,12"/>
				<path id="Shape-49" class="st0" d="M23.1,12.6c0.1-0.1,0.3-0.2,0.4-0.3v-0.1l0,0c0-0.1-0.1-0.1-0.2-0.2c0,0.1,0,0.1-0.1,0.1l0,0
					c-0.1,0.1-0.2,0.1-0.2,0.2v0.2C23.1,12.8,23.1,12.7,23.1,12.6"/>
				<path id="Shape-50" class="st0" d="M21.6,11.6v0.1C21.7,11.8,21.7,11.7,21.6,11.6L21.6,11.6"/>
				<path id="Shape-51" class="st0" d="M18,9.4c0.1,0.1,0.3,0.1,0.4,0.1l0.1-0.1c-0.1-0.1-0.2,0-0.2-0.1h-0.1
					C18.1,9.2,18,9.3,18,9.4L18,9.4"/>
				<path id="Shape-52" class="st0" d="M27.1,11c0,0.1-0.1,0-0.2,0.1v0.1c0.1,0.1,0.2,0,0.3,0l0,0c0,0,0.1-0.1,0.1,0v0.1
					c-0.1,0-0.1,0-0.1,0.1v0h-0.3v0.2c-0.1,0.1-0.4,0.2-0.3,0.4c0.1,0.1,0.3,0.1,0.5,0.1l0,0c0-0.2,0.1-0.2,0.2-0.3
					c0-0.1,0-0.1-0.1-0.1l0,0v-0.1c0.1,0,0.1,0,0.1-0.1v0v-0.1c0.1,0,0.1,0,0.2-0.1c0-0.1-0.1-0.2-0.1-0.3c0-0.1,0-0.1,0.1-0.1l0,0
					v-0.1h-0.1c0,0-0.1,0,0,0.1C27.3,10.9,27.2,10.9,27.1,11C27.1,10.8,27.2,11,27.1,11"/>
				<path id="Shape-53" class="st0" d="M26.1,12c0,0.1,0.1,0.1,0.2,0H26.1"/>
				<path id="Shape-54" class="st0" d="M27.5,11.8c-0.1,0.1,0.1,0.1,0.2,0.1l0,0C27.7,11.8,27.6,11.8,27.5,11.8"/>
				<path id="Shape-55" class="st0" d="M27.9,11.3L27.9,11.3C27.8,11.3,27.8,11.4,27.9,11.3L27.9,11.3"/>
				<path id="Shape-56" class="st0" d="M25.6,7.3c0.1,0.1,0.2,0.1,0.2,0.2v0.4L25.9,8v0.2c0,0.1,0.1,0.3,0.1,0.4
					c0.1,0,0.1,0,0.1,0.1v0c0,0.1,0,0.1,0.1,0.2s0.1,0,0.2,0.1s0.2,0.3,0.3,0.4c0.1,0,0.1,0,0.1,0.1v0v0.1c0.2,0,0.5,0.1,0.4,0.4
					c0.1-0.1,0.2-0.1,0.2-0.2s0.1-0.3,0-0.4s-0.1-0.1-0.2-0.2V9c0-0.1,0-0.1-0.1-0.1l0,0c0-0.1-0.1-0.3,0.1-0.3V8.5H27V8.4
					C27,8.2,26.9,8,26.7,8c0,0-0.1,0-0.1,0c-0.1-0.1-0.1-0.1-0.2-0.1h-0.2c-0.2-0.2-0.3-0.4-0.4-0.6C25.7,7.2,25.6,7.2,25.6,7.3
					c-0.1,0-0.1,0-0.1,0C25.6,7.2,25.6,7.2,25.6,7.3L25.6,7.3"/>
				<path id="Shape-57" class="st0" d="M24.7,7.6c-0.1,0.1-0.1,0.1,0,0.2c0,0,0,0,0,0h0.4c0.1,0,0.1,0,0.1-0.1c0,0,0,0,0,0
					c0.1-0.1,0.2,0,0.4-0.1c0,0.1,0,0.1,0.1,0.1s0-0.2-0.1-0.2s-0.1-0.2-0.2-0.3h-0.1c0,0.2-0.1,0.1-0.3,0.2v0.1l0,0V7.4h-0.2
					C24.8,7.5,24.8,7.5,24.7,7.6"/>
				<path id="Shape-58" class="st0" d="M22.4,3.7c-0.1-0.2-0.3-0.4-0.2-0.7c0.3,0.1,0.6,0.1,0.9,0c0.2-0.1,0.5,0,0.7-0.1V2.7
					c-0.3,0.1-0.5-0.2-0.7-0.1c-0.3,0.1-0.6,0.2-0.9,0.3c-0.2,0.1-0.9,0-0.9,0.4c0.3,0,0.7,0,0.9,0.3C22.2,3.7,22.3,3.7,22.4,3.7"/>
				<path id="Shape-59" class="st0" d="M23.4,5.2c0.1,0.1,0.2,0.2,0.4,0.2c0-0.1,0-0.1-0.1-0.2H23.4"/>
				<path id="Shape-60" class="st0" d="M23.1,5.7c-0.1,0,0,0.1,0.1,0.2C23.2,5.8,23.3,5.6,23.1,5.7"/>
				<path id="Shape-61" class="st0" d="M22.9,5.4L22.9,5.4c0.1-0.1,0-0.2-0.1-0.2v0.1L22.9,5.4"/>
				<path id="Shape-62" class="st0" d="M23.8,6.5L23.8,6.5c0.1-0.1,0.1-0.1,0.1-0.2h-0.1C23.7,6.4,23.7,6.4,23.8,6.5
					C23.8,6.5,23.8,6.5,23.8,6.5"/>
				<path id="Shape-63" class="st0" d="M24.1,6.5L24.1,6.5C24.2,6.7,24.2,6.6,24.1,6.5L24.1,6.5C24.2,6.5,24.1,6.6,24.1,6.5"/>
				<path id="Shape-64" class="st0" d="M24,6.8L24,6.8l0.1-0.1l0,0c0-0.1-0.1-0.1-0.2,0S24,6.7,24,6.8"/>
				<path id="Shape-65" class="st0" d="M24.1,6.8L24.1,6.8c0,0.1,0.1,0.2,0.2,0.1s0.1-0.1,0-0.1H24.1z"/>
				<path id="Shape-66" class="st0" d="M24.6,7L24.6,7c0-0.1,0-0.1-0.1-0.2c0,0-0.1,0.1,0,0.1S24.5,7,24.6,7"/>
				<path id="Shape-67" class="st0" d="M24.7,7.3h0.1V7.2l0,0V7.1h-0.2v0.1L24.7,7.3"/>
				<path id="Shape-68" class="st0" d="M24.5,7.5L24.5,7.5c0.1-0.1,0.1-0.1,0-0.2h-0.1c0,0.1,0,0.1-0.1,0.1l0,0
					C24.4,7.5,24.4,7.5,24.5,7.5"/>
				<path id="Shape-69" class="st0" d="M24.2,2.5L24.2,2.5c-0.1-0.1-0.1-0.1-0.2-0.1C24.1,2.5,24.1,2.6,24.2,2.5"/>
				<path id="Shape-70" class="st0" d="M27.6,5c0.1,0.1,0.2,0,0.2,0.1s0.1,0.2,0.2,0.2s0.1,0,0.1-0.1s0-0.4-0.2-0.4h-0.5
					c-0.1,0-0.1,0.1-0.1,0.2C27.4,4.9,27.5,4.9,27.6,5C27.6,5,27.6,5,27.6,5"/>
				<path id="Shape-71" class="st0" d="M31.7,10.2c-0.1-0.1-0.1-0.3-0.2-0.4s-0.2-0.1-0.3-0.2V9.4l-0.1-0.1C31,9.1,31,9,30.8,9
					c0-0.2-0.1-0.2-0.3-0.3V8.6c0-0.1,0-0.1-0.1-0.1l0,0h-0.1c-0.1-0.1-0.2-0.2-0.2-0.3S29.9,8,29.8,7.9l-0.1-0.1
					c-0.1,0-0.2,0-0.2-0.1s-0.2-0.3-0.3-0.4s0-0.4-0.1-0.7c0-0.1-0.1-0.1-0.2-0.1c-0.1,0-0.1,0-0.1-0.1c0,0,0,0,0,0
					c-0.1-0.1,0-0.3-0.1-0.4s-0.3-0.3-0.4-0.5c-0.1-0.1-0.2-0.1-0.3-0.1h-0.1l-0.1-0.1c-0.1-0.1-0.2-0.2-0.3-0.2s-0.4,0-0.6-0.1
					s-0.4,0-0.5,0.2s-0.3,0.2-0.5,0.2s0,0.1,0,0.2s-0.2,0.2-0.1,0.2H26c0.1,0,0.1,0,0.1,0.1c0,0,0,0,0,0c0.1,0.1,0.2,0.2,0.2,0.3
					c-0.1,0.1-0.1,0.1,0,0.2c0,0,0,0,0,0c0.1,0.1,0.1,0.2,0.1,0.3c0,0.1,0.1,0,0.1,0c0.1,0,0.2,0.2,0.1,0.3c0,0,0,0.1,0,0.1v0.3
					c0.1,0.2,0.1,0.4,0.2,0.5l0.1-0.1c0.1,0,0.1-0.1,0.2-0.1c0.2-0.2,0.4,0.2,0.5,0.3c0.1,0.1,0,0.4,0.1,0.6C27.8,8.8,27.9,8.9,28,9
					c0,0.1,0,0.1,0.1,0.2l0.1,0.1c0-0.1,0-0.1,0.1-0.1l0,0h0.1c0.2,0.2,0.2,0.6,0.5,0.6c0,0.1,0,0.1,0.1,0.1l0,0
					c0.1,0,0.1-0.1,0.2,0c0,0.1,0,0.1,0.1,0.2h0.3c0.1,0,0.1,0.1,0.2,0.2l0.1,0.1c0.2,0.2,0.3,0.5,0.5,0.7s0.2,0.2,0.3,0.1v-0.1
					c0.1,0,0.2-0.1,0.2-0.2l0.3-0.3l0,0c0.1-0.1,0.2-0.1,0.3-0.2C31.8,10.4,31.7,10.2,31.7,10.2"/>
				<path id="Shape-72" class="st0" d="M27.5,10.3c0,0.1,0.1,0.1,0.2,0.1s0.1,0.2,0.2,0.2s0.1-0.1,0.1-0.2h0.1
					c0.1-0.1,0-0.3-0.1-0.4s-0.1-0.2-0.3-0.2s-0.1,0-0.2,0.1S27.5,10.1,27.5,10.3L27.5,10.3"/>
				<path id="Shape-73" class="st0" d="M28.2,10.7c-0.1,0.2,0,0.4,0,0.6S28,11.4,28,11.5c-0.1,0.1-0.1,0.1,0,0.2c0,0,0,0,0,0
					c0,0.1,0.2,0.1,0.3,0.2c0.3,0.1,0.5,0.3,0.6,0.6c0.1,0.1,0.1,0.2,0.1,0.3c0.1,0.1,0.2,0.1,0.2,0.2s0.1,0.1,0.1,0
					c0.1-0.1,0.1-0.3,0-0.4c-0.1-0.1-0.1-0.1-0.1-0.2c0-0.3-0.1-0.5-0.2-0.8l-0.3-0.3v-0.1c0-0.1,0.1-0.1,0.1-0.2s-0.1-0.2-0.2-0.3
					l0,0C28.4,10.6,28.3,10.6,28.2,10.7"/>
				<path id="Shape-74" class="st0" d="M29.7,12.1v-0.2c0-0.2-0.2-0.2-0.3-0.2h-0.1v0.2c0.2,0.3,0.3,0.7,0.3,1c0,0.1,0.3,0,0.3-0.1
					v-0.2c0-0.1-0.1-0.1-0.1-0.2S29.7,12.2,29.7,12.1"/>
				<path id="Shape-75" class="st0" d="M29.3,11.2c-0.1,0.1,0,0.2,0,0.3l0,0c0.1,0,0.1,0,0.1-0.1S29.4,11.3,29.3,11.2L29.3,11.2"/>
				<path id="Shape-76" class="st0" d="M29.3,11c0-0.1,0-0.1-0.1-0.1S29.1,11,29,11s0,0.1,0.1,0.2l0,0C29.3,11.2,29.4,11.1,29.3,11
					L29.3,11"/>
				<path id="Shape-77" class="st0" d="M28.8,10.5c0.1,0.1,0,0.2,0.1,0.2s0.2,0.1,0.3,0s0-0.1-0.1-0.1v-0.1H29
					c-0.1-0.1,0.1-0.1,0-0.2v-0.1h-0.1v0.1C28.8,10.4,28.7,10.5,28.8,10.5"/>
				<path id="Shape-78" class="st0" d="M28.7,9.9c-0.1,0-0.2,0-0.2-0.1h-0.1c0,0-0.1,0.1,0,0.1c0.1,0,0.1,0,0.1,0.1v0
					c0,0.1,0.1,0,0.1,0.1s0.1,0.1,0.1,0V10l0,0C28.7,10,28.8,9.9,28.7,9.9"/>
				<path id="Shape-79" class="st0" d="M21.6,14.5L21.6,14.5c0.1-0.1,0.1-0.1,0-0.2c0,0,0,0,0,0c-0.1,0-0.1,0-0.1,0.1v0l0,0
					C21.6,14.4,21.6,14.4,21.6,14.5"/>
				<path id="Shape-80" class="st0" d="M29.4,13.2c-0.1,0-0.3,0-0.4,0.1c-0.2,0.1-0.3,0.4-0.4,0.6c-0.1,0.1-0.2,0.2-0.4,0.2
					c-0.1,0-0.1,0-0.1-0.1v0v-0.2l0.1-0.1c0.1-0.1,0-0.2,0-0.3s-0.3-0.4-0.5-0.3s-0.3,0.3-0.5,0.5l0,0c-0.1-0.1-0.2-0.2-0.2-0.3
					v-0.1c0.1,0,0.2,0.2,0.2,0.1s0-0.2-0.1-0.2S27,13,26.9,13s-0.1-0.1-0.2-0.2s0-0.3-0.1-0.3c-0.1,0-0.2,0-0.3-0.1h-0.2v-0.1
					c0.1,0,0.3,0,0.2-0.2S26.2,12,26.1,12H26v0.3c-0.1,0.1-0.2,0.1-0.3,0.1h-0.1c-0.1,0-0.2-0.1-0.3-0.1s-0.1,0.2-0.2,0.2
					s-0.1,0-0.2,0.1s-0.1,0.2,0,0.3V13c-0.1,0-0.1,0-0.1-0.1v0c0-0.1-0.1-0.2-0.1-0.3s0.1-0.2,0.2-0.3v-0.2C24.8,12,24.8,12,24.7,12
					s-0.3,0.4-0.5,0.3s-0.2-0.2-0.3-0.2s-0.1-0.1-0.2,0c-0.2,0.1-0.3,0.2-0.5,0.3c-0.1,0.1-0.3,0.2-0.3,0.4
					c-0.1,0.2-0.3,0.3-0.5,0.2c0,0-0.1,0-0.1-0.1c-0.1-0.1-0.2-0.2-0.3-0.2s-0.2,0.2-0.3,0.2s-0.1,0-0.2-0.1v-0.1l0.6-0.3
					c0.1,0,0.1-0.1,0.1-0.2V12c-0.3,0-0.5,0.2-0.6,0.4c0,0.1,0,0.1-0.1,0.1l0,0c-0.2,0-0.3,0.1-0.5,0l-0.1-0.2
					c-0.1,0.1-0.1,0.2-0.2,0.2l-0.1,0.1c-0.1,0.1,0.1,0.3,0,0.4s-0.2,0.1-0.3,0.1v0.2c0,0.1,0.1,0,0.1,0.1s0.1,0.3,0.2,0.3
					s0.3,0,0.5,0.1s0.2,0.1,0.3,0.2s0.1,0.1,0.1,0.2c0,0.1,0,0.1,0.1,0.1l0,0h0.2c0.1,0,0,0.1,0.1,0.2c0,0.1,0,0.3,0.1,0.4
					c0,0,0,0.2-0.1,0.2c-0.1,0-0.1,0-0.1,0.1v0v0.3h0.1c0.1,0.1,0.1,0.2,0.2,0.3l0.1,0.1c-0.1,0-0.1,0-0.1,0.1l0,0
					c0.1,0.1,0.1,0.1,0.2,0c0,0,0,0,0,0c0.1,0,0.1-0.1,0.2-0.1c0.1,0,0.1,0,0.1-0.1v0c0.1,0.1,0.1,0.1,0.1,0.2
					c-0.1,0.1-0.3,0-0.4,0.1s-0.1,0-0.2,0.1c0,0.1,0,0.1,0.1,0.1l0,0c0.2,0.1,0.1,0.4-0.1,0.6v0.2H22c-0.2,0-0.5-0.1-0.7,0
					s-0.1,0.1-0.1,0.2l0,0c-0.1,0-0.1,0-0.1,0.1l0,0v0.2c-0.2,0.2-0.2,0.5-0.3,0.7c0,0.1,0,0.1,0.1,0.1l0,0c0.1,0,0.1-0.1,0.2-0.1
					s0.1,0.2,0.1,0.2s0.2,0.1,0.2,0c0-0.1,0-0.2,0.1-0.3c0-0.1-0.1-0.2-0.1-0.3s0-0.2,0.1-0.2c0.1,0,0.1,0,0.1,0.1l0,0v0.4
					c0.1,0.1,0.1,0.1,0,0.2c0,0,0,0,0,0c0,0.1,0,0.1-0.1,0.1l0,0v0.2c-0.1,0.1-0.1,0.1-0.1,0.2c-0.2,0-0.4-0.1-0.3-0.3
					c-0.1,0-0.1,0-0.2,0.1V19c-0.1,0.1-0.1,0.2-0.2,0.3v0.1c-0.1,0.1-0.2,0.2-0.3,0.2l0,0c-0.1,0.1-0.2,0-0.2,0.1s0.1,0.2,0.1,0.3
					s0,0.1-0.1,0.2h-0.4c0,0.1,0,0.2-0.1,0.3c-0.1,0.1,0,0.2,0.1,0.2s0.1,0.2,0.2,0.2s0.1,0.1,0.2,0.1c0.1,0,0.2-0.1,0.2-0.2
					c0-0.1,0.1,0,0.2,0h0.1c0.1-0.1,0.1-0.1,0-0.2c0,0,0,0,0,0l0.4-0.4c0.1,0,0.1-0.1,0.2-0.1s0.1,0.1,0.2,0.1s0.1,0.1,0.2,0.1h0.1
					c0.1,0,0.2,0.2,0.3,0.2l0,0c0-0.1,0-0.2-0.1-0.3c-0.1-0.1-0.2-0.2-0.3-0.2v-0.1l0,0c0.1,0.1,0.1,0.1,0.2,0.1s0.1,0.2,0.2,0.3
					s0.1,0.1,0.2,0.1c0.1,0,0.2,0,0.3-0.1c0-0.1,0-0.1-0.1-0.1s0-0.1,0.1-0.2s0-0.2,0-0.3v-0.1l0,0c0.1-0.1,0-0.2,0-0.4l0,0
					c0,0.1,0.1,0.1,0.2,0.1c0.1,0,0.2-0.1,0.2-0.2c0.1-0.1,0.2,0,0.3,0c0,0,0,0,0,0.1c0,0.1,0,0.2-0.1,0.2c-0.2,0-0.4,0.1-0.5,0.2
					l-0.1,0.1c-0.1,0.1-0.1,0.1-0.1,0.2L22.4,20c0.1,0,0.1,0,0.1,0.1l0,0c0.1,0,0.2,0,0.3-0.1v-0.2c0.1,0,0.1-0.1,0.2-0.1
					s0.3,0.2,0.2,0.3h-0.1c-0.1,0.1-0.2,0.3-0.3,0.3s-0.5,0.1-0.7,0.2s-0.1,0.2-0.2,0.2s-0.2,0.1-0.3,0l0,0c0,0.1-0.2,0-0.3,0
					c0-0.1,0-0.1-0.1-0.2h-0.1v-0.1h-0.8c-0.1,0-0.1,0-0.1,0.1l0,0l-0.1,0.1c-0.1,0.1-0.2,0.1-0.3,0.1s-0.2,0-0.3,0.1
					c-0.2,0-0.3,0.2-0.4,0.3c-0.1,0.1-0.2,0.1-0.3,0.1v0.1c-0.2,0-0.3,0.3-0.4,0.5V22c-0.1,0.1-0.1,0.3-0.3,0.4v0.1
					c0.1,0.2,0.3,0.3,0.5,0.5c0,0.1,0,0.1,0.1,0.1l0,0c0.1,0.1,0.1,0.2,0.2,0.4s0.3,0.2,0.5,0.2c0.1,0,0.1,0,0.2,0.1
					c0.2,0,0.5,0.1,0.7,0c0.3,0.1,0.7,0,1,0.1c0.1,0,0.1,0.1,0.1,0.2s0.2,0.3,0.3,0.4c0.1,0.1,0.3,0.1,0.4,0.1c0,0.1,0,0.1,0.1,0.2
					c0,0.1,0,0.1,0.1,0.2s0.1,0.1,0.1,0.2s-0.1,0.2-0.1,0.4v0.2c0.2,0.2,0.4,0.4,0.6,0.5c0,0,0.1,0,0,0.1c0.1,0,0.1,0.1,0.2,0.2
					s0,0.1,0.1,0.2l0.3,0.3c0.1,0.1,0.3,0.1,0.4,0.1c0.1,0,0.1,0,0.1,0.1l0,0c0.1,0,0.3,0.1,0.4,0s0.1-0.2,0.2-0.2
					C24.7,27,24.9,27,25,27c0.1,0,0.1,0,0.1-0.1l0,0c0-0.1,0.1-0.1,0.1-0.2s0.2-0.1,0.3-0.1s0.3-0.3,0.5-0.4s0.4-0.1,0.5-0.2
					s0-0.4,0-0.6s0.1-0.2,0.1-0.3v-0.5c0-0.1-0.1-0.2-0.1-0.3s0.1-0.1,0.2-0.1s0.1-0.3,0.2-0.4c0.1,0,0.1,0,0.1-0.1l0,0
					c0.1,0,0-0.1,0-0.2c-0.1,0-0.1,0-0.1-0.1l0,0c-0.1-0.2-0.3-0.4-0.5-0.5c-0.1,0-0.1,0-0.1-0.1l0,0v-0.1c-0.1,0,0-0.1-0.1-0.1h0.1
					c0.1-0.1,0.1-0.3,0.2-0.4c0.1,0,0.1,0,0.1-0.1l0,0v-0.3c-0.1-0.1,0-0.3,0-0.4c0-0.3,0-0.5-0.1-0.8c0-0.1-0.1-0.1-0.2-0.1
					c0,0.1,0,0.1-0.1,0.1l0,0c0,0.1,0,0.1-0.1,0.2c0,0.1-0.2,0.1-0.2,0.2s0,0.1-0.1,0.2l-0.1,0.1C26.1,21,26,21,26,21.1h-0.3
					c-0.5-0.2-1.1-0.4-1.6-0.5h0.3c0.1,0,0-0.1,0-0.1s0.2,0.1,0.3,0.2s0.5,0.1,0.7,0.2s0.3,0.2,0.5,0.2s0.3-0.1,0.4-0.1v-0.1
					c0.1-0.1,0.2-0.2,0.2-0.3v-0.3l0.1-0.1v-0.4c0.1,0,0.1,0,0.1-0.1l0,0v-0.3c0-0.2,0-0.4-0.1-0.5c0-0.1-0.1-0.1-0.2-0.1
					c0,0.1,0,0.1-0.1,0.1l0,0c-0.1,0-0.2,0-0.2,0.1C26,19,26,19,26,19.1l0,0c-0.1,0.1-0.2,0.2-0.4,0.2c-0.1,0-0.2,0-0.2-0.1
					s0.2-0.2,0.4-0.2l0.1-0.1c0-0.1,0.1-0.2,0.2-0.2h0.2c0.1,0,0.1-0.1,0.2-0.1c0-0.1,0-0.1,0.1-0.2c0-0.1,0.1-0.1,0.2-0.2
					s0.1-0.4,0.2-0.6s0,0.1,0.1,0.2c0.1,0.1,0.2,0.1,0.3,0c0,0,0,0,0,0c0.1-0.1,0-0.2,0.1-0.2h0.1c0.1,0,0.1,0.1,0.2,0.1
					c0.1-0.1,0.1-0.1,0.2-0.1h0.3c0.2-0.1,0.6,0,0.6-0.2c0-0.3-0.3-0.6-0.6-0.7c-0.2-0.1-0.1-0.4-0.3-0.6c-0.1,0,0-0.1-0.1-0.2
					l-0.1-0.1l-0.1-0.1v-0.5c0-0.1,0.1-0.1,0.2-0.1s0.2-0.1,0.2-0.2v-0.4l0.1-0.1c0.2,0,0.5,0.1,0.7-0.1c0.1,0,0.1-0.1,0.1-0.2
					C29.3,13.9,29.4,13.6,29.4,13.2C29.3,13.4,29.4,13.4,29.4,13.2C29.5,13.3,29.5,13.2,29.4,13.2 M24.9,18.6L24.9,18.6
					c-0.1,0.1-0.1,0.1-0.2,0s-0.1-0.1-0.1-0.2s-0.1,0-0.1,0.1h-0.2c0-0.1-0.1-0.1-0.1-0.2s0-0.2,0.1-0.2s0.1,0,0.1,0.1l0,0v0.1
					c0.1,0.1,0.1,0,0.2,0h0.3C24.9,18.4,25,18.5,24.9,18.6L24.9,18.6"/>
				<path id="Shape-81" class="st0" d="M15.6,36c1.3-1.9,5.2-3.9,9-3.9s8,2.2,9.6,1c-1.5,1-3.3,1.5-5.1,1.4c-3.4,0-4.7-1.7-7-1.7
					s-4.8,1.9-5.9,3.5L15.6,36z"/>
				<path id="Shape-82" class="st0" d="M27.7,31.8c0.7-0.5,1.3-1.1,1.7-1.9c0.9-1.7,2.2-3.2,3.7-4.4c0,0-1.7,5.5-3.5,5.7
					c0,0-0.3,0.2,0.2,0.1s2.8-0.9,3.6-1.1c1.2-0.1,2.3-0.5,3.3-1.1c0.2-0.2,0.5-0.4,0.8-0.4c0,0-2.2,3.7-6.2,3.7
					C30.1,32.3,28.9,32.1,27.7,31.8"/>
				<path id="Shape-83" class="st0" d="M32.4,29.9c0.3-0.5,0.5-1.1,0.5-1.7c0.4-2.3,1.3-4.4,2.7-6.3c0,0,0.3,4.3-1.9,7
					c0,0-0.1,0.4,0.1,0.1c1.4-1.5,2.9-2.8,4.6-3.9c0,0,1.5-1.3,1.6-1.7C40,23.3,38.8,29.5,32.4,29.9"/>
				<path id="Shape-84" class="st0" d="M36.1,25.8c0.1-0.4,0.2-0.9,0.2-1.3c0-0.6-0.3-2.6-0.3-3.5c-0.1-1.3,0.2-2.6,0.8-3.7
					c0,0.5,0.1,0.9,0.2,1.4c0.3,0.8,0.4,1.7,0.5,2.5c0,0.8-0.2,1.7-0.4,2.5c0.3-0.2,0.5-0.5,0.6-0.8c0.6-1,1.3-2,2.2-2.8
					c0.6-0.6,1.1-1.3,1.4-2.1c0.1,1.5-0.3,2.9-1.2,4.1c-1.5,2.1-2.1,1.8-2.9,2.6C36.9,25.1,36.5,25.5,36.1,25.8"/>
				<path id="Shape-85" class="st0" d="M38.4,20.9c0-0.5-0.1-1.1-0.3-1.6c-1-1.8-1.5-3.8-1.3-5.9c0,0,0.2-0.2,0.6,1s1,1.6,1.2,2.8
					c0.1,0.6,0.2,1.1,0.2,1.7c0,0,0.1,0.2,0.1,0c0.1-1.1,0.3-2.2,0.8-3.2c0.7-1.5,1.6-2.9,1.5-3.9c0,0,0.4,0,0.3,1.6
					C41.6,15,41.2,17.8,38.4,20.9"/>
				<path id="Shape-86" class="st0" d="M39.2,16.1c-0.2-0.5-0.5-1-0.8-1.5c-0.3-0.4-2.7-3.7-2.9-5.3c0,0,0.2-0.1,0.4,0.3
					c0.4,0.6,1,1.2,1.5,1.7c0.8,0.7,1.3,1.7,1.5,2.8c0,0,0.1,0.1-0.1-2.1s0.7-3.7-0.1-5.3c0,0,1.1,0.2,1.7,4.8
					c-0.1,1.2-0.4,2.5-0.9,3.6C39.6,15,39.3,16.1,39.2,16.1"/>
				<path id="Shape-87" class="st0" d="M38.3,11c-0.5-0.5-1-0.9-1.6-1.3c-1.5-1.1-2.6-2.6-3.3-4.3c0,0,0.1-0.2,0.8,0.7
					c0.5,0.7,1.1,0.4,2.7,2.4c0,0,0.2,0.5,0.3,0.4s-0.1-0.5-0.1-0.5S37,7.2,37,6.8c-0.2-1.1-0.5-2.1-0.9-3.1
					c1.5,1.1,2.5,2.8,2.5,4.7C38.5,8.4,38.4,10.9,38.3,11"/>
				<path id="Shape-88" class="st0" d="M36.5,7.3c0,0,0.1-3-3.8-4.6c0,0,1.4,2.8,2.4,3.5C35.6,6.5,36.1,6.9,36.5,7.3"/>
				<path id="Shape-89" class="st0" d="M26.3,36c-1.3-1.9-5.2-3.9-9-3.9s-8,2.2-9.6,1c1.5,1,3.3,1.5,5.1,1.4c3.4,0,4.7-1.7,7-1.7
					s4.8,1.9,5.9,3.5L26.3,36z"/>
				<path id="Shape-90" class="st0" d="M14.2,31.8c-0.7-0.5-1.3-1.1-1.7-1.9c-0.9-1.7-2.2-3.2-3.7-4.4c0,0,1.7,5.5,3.5,5.7
					c0,0,0.3,0.2-0.2,0.1s-2.8-0.9-3.6-1.1c-1.2-0.1-2.3-0.5-3.3-1.1c-0.2-0.2-0.5-0.4-0.8-0.4c0,0,2.2,3.7,6.2,3.7
					C11.8,32.3,13,32.1,14.2,31.8"/>
				<path id="Shape-91" class="st0" d="M9.5,29.9C9.2,29.4,9,28.8,9,28.2c-0.4-2.3-1.3-4.4-2.7-6.3c0,0-0.3,4.3,1.9,7
					c0,0,0.1,0.4-0.1,0.1c-1.4-1.5-2.9-2.8-4.6-3.9c0,0-1.5-1.3-1.6-1.7C1.9,23.3,3.1,29.5,9.5,29.9"/>
				<path id="Shape-92" class="st0" d="M5.8,25.8c-0.1-0.4-0.2-0.9-0.2-1.3c0-0.6,0.3-2.6,0.3-3.5c0.1-1.3-0.2-2.6-0.8-3.7
					c0,0.5-0.1,0.9-0.2,1.4c-0.3,0.8-0.4,1.7-0.5,2.5c0,0.8,0.2,1.7,0.4,2.5c-0.3-0.2-0.5-0.5-0.6-0.8c-0.6-1-1.3-2-2.2-2.8
					c-0.6-0.6-1.1-1.3-1.4-2.1c-0.1,1.5,0.3,2.9,1.2,4.1c1.5,2.1,2.1,1.8,2.9,2.6C4.8,24.7,5.7,25.8,5.8,25.8"/>
				<path id="Shape-93" class="st0" d="M3.5,20.9c0-0.5,0.1-1.1,0.3-1.6c1-1.8,1.5-3.8,1.3-5.9c0,0-0.2-0.2-0.6,1s-1,1.6-1.2,2.8
					C3.1,17.8,3,18.3,3,18.9c0,0-0.1,0.2-0.1,0c-0.1-1.1-0.3-2.2-0.8-3.2c-0.7-1.5-1.6-2.9-1.5-3.9c0,0-0.4,0-0.3,1.6
					C0.4,16.2,1.5,18.9,3.5,20.9"/>
				<path id="Shape-94" class="st0" d="M2.7,16.1c0.2-0.5,0.5-1,0.8-1.5c0.3-0.4,2.7-3.7,2.9-5.3c0,0-0.2-0.1-0.4,0.3
					c-0.4,0.6-1,1.2-1.5,1.7C3.7,12,3.2,13,3,14.1c0,0-0.1,0.1,0.1-2.1S2.4,8.3,3.2,6.7c0,0-1.1,0.2-1.7,4.8
					c0.1,1.2,0.4,2.5,0.9,3.6C2.3,15,2.6,16.1,2.7,16.1"/>
				<path id="Shape-95" class="st0" d="M3.6,11c0.5-0.5,1-0.9,1.6-1.3c1.5-1.1,2.6-2.6,3.3-4.3c0,0-0.1-0.2-0.8,0.7
					C7.2,6.8,6.6,6.5,5,8.5c0,0-0.2,0.5-0.3,0.4s0.1-0.5,0.1-0.5C4.9,7.8,5,7.3,5.1,6.7C5.3,5.6,5.6,4.6,6,3.6
					C4.5,4.7,3.5,6.4,3.5,8.3C3.4,9.2,3.5,10.1,3.6,11"/>
				<path id="Shape-96" class="st0" d="M5.4,7.3c0,0-0.1-3,3.8-4.6c0,0-1.4,2.8-2.4,3.5C6.3,6.5,5.8,6.9,5.4,7.3"/>
			</g>
		</g>
	</g>
</g>
</svg>
